<svg xmlns="http://www.w3.org/2000/svg" xmlns:xlink="http://www.w3.org/1999/xlink" width="500" zoomAndPan="magnify" viewBox="0 0 375 374.999991" height="500" preserveAspectRatio="xMidYMid meet" version="1.2"><defs><clipPath id="06a35f4376"><path d="M 146.867188 139.15625 L 227.867188 139.15625 L 227.867188 174.40625 L 146.867188 174.40625 Z M 146.867188 139.15625 "/></clipPath></defs><g id="1ec6236aa7"><g clip-rule="nonzero" clip-path="url(#06a35f4376)"><path style=" stroke:none;fill-rule:evenodd;fill:#0fb9e6;fill-opacity:1;" d="M 150.644531 161.511719 C 150.308594 158.351562 150.308594 155.191406 150.644531 152.03125 C 150.65625 151.917969 150.605469 151.863281 150.492188 151.863281 L 148.949219 151.863281 C 147.808594 151.863281 146.882812 154.058594 146.882812 156.773438 C 146.882812 159.484375 147.808594 161.683594 148.949219 161.683594 L 150.492188 161.683594 C 150.605469 161.683594 150.65625 161.625 150.644531 161.511719 Z M 176.078125 162.507812 L 198.660156 162.507812 C 198.839844 162.507812 198.9375 162.597656 198.953125 162.773438 C 199.585938 169.546875 201.257812 174.386719 203.222656 174.386719 C 205.730469 174.386719 207.761719 166.5 207.761719 156.773438 C 207.761719 155.894531 207.746094 155.03125 207.710938 154.1875 C 207.710938 154.140625 207.734375 154.113281 207.777344 154.105469 C 207.824219 154.101562 207.855469 154.117188 207.867188 154.164062 C 209.632812 160.210938 208.273438 171.339844 206.949219 174.230469 C 206.933594 174.265625 206.933594 174.304688 206.957031 174.335938 C 206.980469 174.371094 207.011719 174.386719 207.050781 174.386719 L 211.683594 174.386719 C 214.394531 174.386719 216.605469 166.859375 216.703125 157.4375 C 216.703125 157.390625 216.726562 157.363281 216.773438 157.359375 C 216.820312 157.355469 216.851562 157.375 216.859375 157.421875 C 217.867188 162.097656 217.234375 168.261719 216.476562 170.984375 C 216.453125 171.078125 216.488281 171.125 216.582031 171.125 L 218.773438 171.125 C 221.28125 171.125 223.3125 164.699219 223.3125 156.773438 C 223.3125 148.84375 221.28125 142.417969 218.773438 142.417969 L 214.59375 142.417969 C 213.773438 140.367188 212.769531 139.15625 211.683594 139.15625 L 203.222656 139.15625 C 201.257812 139.15625 199.582031 143.996094 198.949219 150.769531 C 198.933594 150.949219 198.835938 151.039062 198.65625 151.039062 L 176.078125 151.039062 C 175.898438 151.039062 175.800781 150.949219 175.785156 150.769531 C 175.15625 143.996094 173.480469 139.15625 171.515625 139.15625 L 163.054688 139.15625 C 161.984375 139.15625 160.996094 140.328125 160.183594 142.320312 C 160.15625 142.386719 160.109375 142.417969 160.039062 142.417969 L 155.964844 142.417969 C 153.457031 142.417969 151.425781 148.84375 151.425781 156.769531 C 151.425781 164.699219 153.457031 171.125 155.964844 171.125 L 158.152344 171.125 C 158.25 171.125 158.285156 171.078125 158.261719 170.984375 C 157.503906 168.261719 156.871094 162.09375 157.878906 157.421875 C 157.886719 157.375 157.914062 157.355469 157.964844 157.359375 C 158.011719 157.363281 158.035156 157.390625 158.035156 157.4375 C 158.132812 166.859375 160.34375 174.386719 163.054688 174.386719 L 167.6875 174.386719 C 167.730469 174.386719 167.757812 174.371094 167.78125 174.335938 C 167.804688 174.300781 167.804688 174.265625 167.789062 174.230469 C 166.460938 171.339844 165.105469 160.210938 166.871094 154.164062 C 166.882812 154.117188 166.914062 154.097656 166.960938 154.105469 C 167.007812 154.113281 167.027344 154.140625 167.027344 154.1875 C 166.992188 155.03125 166.976562 155.890625 166.976562 156.769531 C 166.976562 166.5 169.007812 174.386719 171.515625 174.386719 C 173.484375 174.386719 175.152344 169.546875 175.785156 162.773438 C 175.800781 162.59375 175.898438 162.507812 176.078125 162.507812 Z M 157.546875 151.863281 L 153.011719 151.863281 C 152.921875 151.859375 152.882812 151.816406 152.894531 151.726562 C 153.074219 150.113281 153.402344 148.53125 153.871094 146.976562 C 154.078125 146.296875 154.339844 145.644531 154.664062 145.015625 C 154.683594 144.972656 154.71875 144.953125 154.765625 144.953125 L 159.164062 144.953125 C 159.203125 144.953125 159.238281 144.96875 159.261719 145.003906 C 159.285156 145.035156 159.289062 145.070312 159.277344 145.109375 C 158.539062 147.277344 158.003906 149.492188 157.667969 151.757812 C 157.65625 151.828125 157.617188 151.859375 157.546875 151.859375 Z M 165.707031 148.589844 L 159.59375 148.589844 C 159.503906 148.589844 159.460938 148.542969 159.476562 148.453125 C 159.683594 146.964844 160.800781 143.390625 161.734375 141.75 C 161.753906 141.710938 161.789062 141.691406 161.835938 141.691406 L 167.878906 141.691406 C 167.921875 141.691406 167.957031 141.710938 167.980469 141.75 C 168.003906 141.785156 168.003906 141.824219 167.984375 141.863281 C 167.144531 143.457031 166.230469 146.046875 165.820312 148.488281 C 165.8125 148.554688 165.773438 148.585938 165.707031 148.589844 Z M 215.574219 144.953125 L 219.972656 144.953125 C 220.019531 144.953125 220.054688 144.976562 220.078125 145.015625 C 220.398438 145.648438 220.660156 146.300781 220.867188 146.976562 C 221.335938 148.53125 221.660156 150.113281 221.84375 151.730469 C 221.855469 151.816406 221.816406 151.863281 221.726562 151.863281 L 217.1875 151.863281 C 217.121094 151.863281 217.082031 151.828125 217.070312 151.761719 C 216.734375 149.496094 216.199219 147.277344 215.460938 145.109375 C 215.449219 145.074219 215.453125 145.035156 215.476562 145.003906 C 215.5 144.972656 215.53125 144.957031 215.574219 144.957031 Z M 206.753906 141.863281 C 206.734375 141.824219 206.734375 141.789062 206.757812 141.75 C 206.78125 141.710938 206.816406 141.691406 206.859375 141.691406 L 212.902344 141.691406 C 212.949219 141.691406 212.980469 141.710938 213.003906 141.75 C 213.9375 143.390625 215.054688 146.964844 215.261719 148.453125 C 215.273438 148.542969 215.234375 148.589844 215.144531 148.589844 L 209.03125 148.589844 C 208.964844 148.589844 208.925781 148.554688 208.917969 148.488281 C 208.507812 146.046875 207.59375 143.457031 206.753906 141.863281 Z M 171.425781 156.773438 C 171.324219 156.769531 171.273438 156.71875 171.273438 156.617188 C 171.292969 154.851562 171.605469 153.628906 171.851562 153.121094 C 171.878906 153.0625 171.925781 153.03125 171.992188 153.03125 L 202.746094 153.03125 C 202.8125 153.03125 202.859375 153.0625 202.886719 153.121094 C 203.132812 153.628906 203.445312 154.851562 203.464844 156.617188 C 203.464844 156.71875 203.414062 156.769531 203.3125 156.773438 Z M 224.09375 152.03125 C 224.429688 155.191406 224.429688 158.351562 224.09375 161.511719 C 224.082031 161.625 224.132812 161.683594 224.246094 161.683594 L 225.789062 161.683594 C 226.929688 161.683594 227.855469 159.484375 227.855469 156.773438 C 227.855469 154.058594 226.929688 151.863281 225.789062 151.863281 L 224.246094 151.863281 C 224.132812 151.863281 224.082031 151.917969 224.09375 152.03125 Z M 224.09375 152.03125 "/></g><g style="fill:#ffffff;fill-opacity:1;"><g transform="translate(85.908186, 212.118077)"><path style="stroke:none" d="M 6.203125 -25.578125 L 9.78125 -25.578125 C 11.289062 -25.578125 12.4375 -25.1875 13.21875 -24.40625 C 14 -23.625 14.390625 -22.476562 14.390625 -20.96875 L 14.390625 -17.578125 C 14.390625 -17.242188 14.21875 -17.078125 13.875 -17.078125 L 10.546875 -17.078125 C 10.203125 -17.078125 10.03125 -17.242188 10.03125 -17.578125 L 10.03125 -20.078125 C 10.03125 -20.929688 9.609375 -21.359375 8.765625 -21.359375 L 7.21875 -21.359375 C 6.375 -21.359375 5.953125 -20.929688 5.953125 -20.078125 L 5.953125 -15.671875 L 13.5625 -13.171875 C 14.113281 -12.929688 14.390625 -12.535156 14.390625 -11.984375 L 14.390625 -4.609375 C 14.390625 -3.109375 14 -1.960938 13.21875 -1.171875 C 12.4375 -0.390625 11.289062 0 9.78125 0 L 6.203125 0 C 4.710938 0 3.570312 -0.390625 2.78125 -1.171875 C 1.988281 -1.960938 1.59375 -3.109375 1.59375 -4.609375 L 1.59375 -7.953125 C 1.59375 -8.296875 1.765625 -8.46875 2.109375 -8.46875 L 5.4375 -8.46875 C 5.78125 -8.46875 5.953125 -8.296875 5.953125 -7.953125 L 5.953125 -5.5 C 5.953125 -4.644531 6.375 -4.21875 7.21875 -4.21875 L 8.765625 -4.21875 C 9.609375 -4.21875 10.03125 -4.644531 10.03125 -5.5 L 10.03125 -9.75 L 2.46875 -12.25 C 1.882812 -12.4375 1.59375 -12.828125 1.59375 -13.421875 L 1.59375 -20.96875 C 1.59375 -22.476562 1.988281 -23.625 2.78125 -24.40625 C 3.570312 -25.1875 4.710938 -25.578125 6.203125 -25.578125 Z M 6.203125 -25.578125 "/></g></g><g style="fill:#ffffff;fill-opacity:1;"><g transform="translate(104.610348, 212.118077)"><path style="stroke:none" d="M 1.46875 -25.578125 L 13.234375 -25.578125 C 13.578125 -25.578125 13.75 -25.40625 13.75 -25.0625 L 13.75 -21.859375 C 13.75 -21.523438 13.578125 -21.359375 13.234375 -21.359375 L 9.53125 -21.359375 L 9.53125 -0.515625 C 9.53125 -0.171875 9.359375 0 9.015625 0 L 5.6875 0 C 5.34375 0 5.171875 -0.171875 5.171875 -0.515625 L 5.171875 -21.359375 L 1.46875 -21.359375 C 1.125 -21.359375 0.953125 -21.523438 0.953125 -21.859375 L 0.953125 -25.0625 C 0.953125 -25.40625 1.125 -25.578125 1.46875 -25.578125 Z M 1.46875 -25.578125 "/></g></g><g style="fill:#ffffff;fill-opacity:1;"><g transform="translate(122.033771, 212.118077)"><path style="stroke:none" d="M 14.734375 -20.96875 L 14.734375 -13.171875 C 14.734375 -11.035156 13.957031 -9.628906 12.40625 -8.953125 L 14.609375 -0.578125 C 14.710938 -0.191406 14.5625 0 14.15625 0 L 10.84375 0 C 10.539062 0 10.359375 -0.148438 10.296875 -0.453125 L 8.15625 -8.5625 L 5.953125 -8.5625 L 5.953125 -0.515625 C 5.953125 -0.171875 5.78125 0 5.4375 0 L 2.109375 0 C 1.765625 0 1.59375 -0.171875 1.59375 -0.515625 L 1.59375 -25.0625 C 1.59375 -25.40625 1.765625 -25.578125 2.109375 -25.578125 L 10.140625 -25.578125 C 11.648438 -25.578125 12.789062 -25.1875 13.5625 -24.40625 C 14.34375 -23.625 14.734375 -22.476562 14.734375 -20.96875 Z M 5.953125 -12.78125 L 9.109375 -12.78125 C 9.960938 -12.78125 10.390625 -13.207031 10.390625 -14.0625 L 10.390625 -20.078125 C 10.390625 -20.929688 9.960938 -21.359375 9.109375 -21.359375 L 5.953125 -21.359375 Z M 5.953125 -12.78125 "/></g></g><g style="fill:#ffffff;fill-opacity:1;"><g transform="translate(141.087599, 212.118077)"><path style="stroke:none" d="M 1.59375 -4.609375 L 1.59375 -20.96875 C 1.59375 -22.476562 1.988281 -23.625 2.78125 -24.40625 C 3.570312 -25.1875 4.710938 -25.578125 6.203125 -25.578125 L 9.78125 -25.578125 C 11.289062 -25.578125 12.4375 -25.1875 13.21875 -24.40625 C 14 -23.625 14.390625 -22.476562 14.390625 -20.96875 L 14.390625 -4.609375 C 14.390625 -3.109375 14 -1.960938 13.21875 -1.171875 C 12.4375 -0.390625 11.289062 0 9.78125 0 L 6.203125 0 C 4.710938 0 3.570312 -0.390625 2.78125 -1.171875 C 1.988281 -1.960938 1.59375 -3.109375 1.59375 -4.609375 Z M 7.125 -4.125 L 8.984375 -4.125 C 9.835938 -4.125 10.265625 -4.550781 10.265625 -5.40625 L 10.265625 -20.171875 C 10.265625 -21.023438 9.835938 -21.453125 8.984375 -21.453125 L 7.125 -21.453125 C 6.269531 -21.453125 5.84375 -21.023438 5.84375 -20.171875 L 5.84375 -5.40625 C 5.84375 -4.550781 6.269531 -4.125 7.125 -4.125 Z M 7.125 -4.125 "/></g></g><g style="fill:#ffffff;fill-opacity:1;"><g transform="translate(159.789762, 212.118077)"><path style="stroke:none" d="M 11.40625 -25.578125 L 14.734375 -25.578125 C 15.078125 -25.578125 15.25 -25.40625 15.25 -25.0625 L 15.25 -0.515625 C 15.25 -0.171875 15.078125 0 14.734375 0 L 11.578125 0 C 11.273438 0 11.082031 -0.140625 11 -0.421875 L 6.109375 -14.0625 L 5.953125 -14.0625 L 5.953125 -0.515625 C 5.953125 -0.171875 5.78125 0 5.4375 0 L 2.109375 0 C 1.765625 0 1.59375 -0.171875 1.59375 -0.515625 L 1.59375 -25.0625 C 1.59375 -25.40625 1.765625 -25.578125 2.109375 -25.578125 L 5.28125 -25.578125 C 5.570312 -25.578125 5.757812 -25.4375 5.84375 -25.15625 L 10.703125 -11.578125 L 10.90625 -11.578125 L 10.90625 -25.0625 C 10.90625 -25.40625 11.070312 -25.578125 11.40625 -25.578125 Z M 11.40625 -25.578125 "/></g></g><g style="fill:#ffffff;fill-opacity:1;"><g transform="translate(179.355083, 212.118077)"><path style="stroke:none" d="M 1.59375 -4.609375 L 1.59375 -20.96875 C 1.59375 -22.476562 1.988281 -23.625 2.78125 -24.40625 C 3.570312 -25.1875 4.710938 -25.578125 6.203125 -25.578125 L 10.421875 -25.578125 C 11.910156 -25.578125 13.050781 -25.1875 13.84375 -24.40625 C 14.632812 -23.625 15.03125 -22.476562 15.03125 -20.96875 L 15.03125 -17.640625 C 15.03125 -17.304688 14.859375 -17.140625 14.515625 -17.140625 L 11.3125 -17.140625 C 10.976562 -17.140625 10.8125 -17.304688 10.8125 -17.640625 L 10.8125 -20.078125 C 10.8125 -20.929688 10.382812 -21.359375 9.53125 -21.359375 L 7.21875 -21.359375 C 6.375 -21.359375 5.953125 -20.929688 5.953125 -20.078125 L 5.953125 -5.5 C 5.953125 -4.644531 6.375 -4.21875 7.21875 -4.21875 L 9.53125 -4.21875 C 10.382812 -4.21875 10.8125 -4.644531 10.8125 -5.5 L 10.8125 -9.78125 L 9.140625 -9.78125 C 8.796875 -9.78125 8.625 -9.953125 8.625 -10.296875 L 8.625 -13.484375 C 8.625 -13.828125 8.796875 -14 9.140625 -14 L 14.515625 -14 C 14.859375 -14 15.03125 -13.828125 15.03125 -13.484375 L 15.03125 -4.609375 C 15.03125 -3.109375 14.632812 -1.960938 13.84375 -1.171875 C 13.050781 -0.390625 11.910156 0 10.421875 0 L 6.203125 0 C 4.710938 0 3.570312 -0.390625 2.78125 -1.171875 C 1.988281 -1.960938 1.59375 -3.109375 1.59375 -4.609375 Z M 1.59375 -4.609375 "/></g></g><g style="fill:#ffffff;fill-opacity:1;"><g transform="translate(198.696627, 212.118077)"><path style="stroke:none" d="M 1.46875 -25.578125 L 13.234375 -25.578125 C 13.578125 -25.578125 13.75 -25.40625 13.75 -25.0625 L 13.75 -21.859375 C 13.75 -21.523438 13.578125 -21.359375 13.234375 -21.359375 L 9.53125 -21.359375 L 9.53125 -0.515625 C 9.53125 -0.171875 9.359375 0 9.015625 0 L 5.6875 0 C 5.34375 0 5.171875 -0.171875 5.171875 -0.515625 L 5.171875 -21.359375 L 1.46875 -21.359375 C 1.125 -21.359375 0.953125 -21.523438 0.953125 -21.859375 L 0.953125 -25.0625 C 0.953125 -25.40625 1.125 -25.578125 1.46875 -25.578125 Z M 1.46875 -25.578125 "/></g></g><g style="fill:#ffffff;fill-opacity:1;"><g transform="translate(216.12005, 212.118077)"><path style="stroke:none" d="M 1.59375 -4.609375 L 1.59375 -20.96875 C 1.59375 -22.476562 1.988281 -23.625 2.78125 -24.40625 C 3.570312 -25.1875 4.710938 -25.578125 6.203125 -25.578125 L 9.78125 -25.578125 C 11.289062 -25.578125 12.4375 -25.1875 13.21875 -24.40625 C 14 -23.625 14.390625 -22.476562 14.390625 -20.96875 L 14.390625 -4.609375 C 14.390625 -3.109375 14 -1.960938 13.21875 -1.171875 C 12.4375 -0.390625 11.289062 0 9.78125 0 L 6.203125 0 C 4.710938 0 3.570312 -0.390625 2.78125 -1.171875 C 1.988281 -1.960938 1.59375 -3.109375 1.59375 -4.609375 Z M 7.125 -4.125 L 8.984375 -4.125 C 9.835938 -4.125 10.265625 -4.550781 10.265625 -5.40625 L 10.265625 -20.171875 C 10.265625 -21.023438 9.835938 -21.453125 8.984375 -21.453125 L 7.125 -21.453125 C 6.269531 -21.453125 5.84375 -21.023438 5.84375 -20.171875 L 5.84375 -5.40625 C 5.84375 -4.550781 6.269531 -4.125 7.125 -4.125 Z M 7.125 -4.125 "/></g></g><g style="fill:#ffffff;fill-opacity:1;"><g transform="translate(234.822212, 212.118077)"><path style="stroke:none" d="M 1.59375 -4.609375 L 1.59375 -20.96875 C 1.59375 -22.476562 1.988281 -23.625 2.78125 -24.40625 C 3.570312 -25.1875 4.710938 -25.578125 6.203125 -25.578125 L 9.78125 -25.578125 C 11.289062 -25.578125 12.4375 -25.1875 13.21875 -24.40625 C 14 -23.625 14.390625 -22.476562 14.390625 -20.96875 L 14.390625 -4.609375 C 14.390625 -3.109375 14 -1.960938 13.21875 -1.171875 C 12.4375 -0.390625 11.289062 0 9.78125 0 L 6.203125 0 C 4.710938 0 3.570312 -0.390625 2.78125 -1.171875 C 1.988281 -1.960938 1.59375 -3.109375 1.59375 -4.609375 Z M 7.125 -4.125 L 8.984375 -4.125 C 9.835938 -4.125 10.265625 -4.550781 10.265625 -5.40625 L 10.265625 -20.171875 C 10.265625 -21.023438 9.835938 -21.453125 8.984375 -21.453125 L 7.125 -21.453125 C 6.269531 -21.453125 5.84375 -21.023438 5.84375 -20.171875 L 5.84375 -5.40625 C 5.84375 -4.550781 6.269531 -4.125 7.125 -4.125 Z M 7.125 -4.125 "/></g></g><g style="fill:#ffffff;fill-opacity:1;"><g transform="translate(253.524374, 212.118077)"><path style="stroke:none" d="M 11.40625 -25.578125 L 14.734375 -25.578125 C 15.078125 -25.578125 15.25 -25.40625 15.25 -25.0625 L 15.25 -0.515625 C 15.25 -0.171875 15.078125 0 14.734375 0 L 11.578125 0 C 11.273438 0 11.082031 -0.140625 11 -0.421875 L 6.109375 -14.0625 L 5.953125 -14.0625 L 5.953125 -0.515625 C 5.953125 -0.171875 5.78125 0 5.4375 0 L 2.109375 0 C 1.765625 0 1.59375 -0.171875 1.59375 -0.515625 L 1.59375 -25.0625 C 1.59375 -25.40625 1.765625 -25.578125 2.109375 -25.578125 L 5.28125 -25.578125 C 5.570312 -25.578125 5.757812 -25.4375 5.84375 -25.15625 L 10.703125 -11.578125 L 10.90625 -11.578125 L 10.90625 -25.0625 C 10.90625 -25.40625 11.070312 -25.578125 11.40625 -25.578125 Z M 11.40625 -25.578125 "/></g></g><g style="fill:#ffffff;fill-opacity:1;"><g transform="translate(273.089696, 212.118077)"><path style="stroke:none" d="M 6.203125 -25.578125 L 9.78125 -25.578125 C 11.289062 -25.578125 12.4375 -25.1875 13.21875 -24.40625 C 14 -23.625 14.390625 -22.476562 14.390625 -20.96875 L 14.390625 -17.578125 C 14.390625 -17.242188 14.21875 -17.078125 13.875 -17.078125 L 10.546875 -17.078125 C 10.203125 -17.078125 10.03125 -17.242188 10.03125 -17.578125 L 10.03125 -20.078125 C 10.03125 -20.929688 9.609375 -21.359375 8.765625 -21.359375 L 7.21875 -21.359375 C 6.375 -21.359375 5.953125 -20.929688 5.953125 -20.078125 L 5.953125 -15.671875 L 13.5625 -13.171875 C 14.113281 -12.929688 14.390625 -12.535156 14.390625 -11.984375 L 14.390625 -4.609375 C 14.390625 -3.109375 14 -1.960938 13.21875 -1.171875 C 12.4375 -0.390625 11.289062 0 9.78125 0 L 6.203125 0 C 4.710938 0 3.570312 -0.390625 2.78125 -1.171875 C 1.988281 -1.960938 1.59375 -3.109375 1.59375 -4.609375 L 1.59375 -7.953125 C 1.59375 -8.296875 1.765625 -8.46875 2.109375 -8.46875 L 5.4375 -8.46875 C 5.78125 -8.46875 5.953125 -8.296875 5.953125 -7.953125 L 5.953125 -5.5 C 5.953125 -4.644531 6.375 -4.21875 7.21875 -4.21875 L 8.765625 -4.21875 C 9.609375 -4.21875 10.03125 -4.644531 10.03125 -5.5 L 10.03125 -9.75 L 2.46875 -12.25 C 1.882812 -12.4375 1.59375 -12.828125 1.59375 -13.421875 L 1.59375 -20.96875 C 1.59375 -22.476562 1.988281 -23.625 2.78125 -24.40625 C 3.570312 -25.1875 4.710938 -25.578125 6.203125 -25.578125 Z M 6.203125 -25.578125 "/></g></g><g style="fill:#ffffff;fill-opacity:1;"><g transform="translate(127.553316, 231.82853)"><path style="stroke:none" d="M 0.6875 -2.484375 C 0.6875 -2.078125 0.890625 -1.859375 1.296875 -1.828125 C 1.335938 -1.816406 1.382812 -1.8125 1.4375 -1.8125 L 1.609375 -1.8125 C 2.078125 -1.8125 2.328125 -2 2.359375 -2.375 C 2.359375 -2.40625 2.359375 -2.441406 2.359375 -2.484375 L 2.359375 -3.28125 C 2.359375 -3.6875 2.164062 -3.90625 1.78125 -3.9375 C 1.71875 -3.945312 1.660156 -3.953125 1.609375 -3.953125 L 1.4375 -3.953125 C 0.976562 -3.953125 0.726562 -3.769531 0.6875 -3.40625 C 0.6875 -3.363281 0.6875 -3.320312 0.6875 -3.28125 Z M 0.6875 -2.484375 "/></g></g><g style="fill:#ffffff;fill-opacity:1;"><g transform="translate(133.206503, 231.82853)"><path style="stroke:none" d=""/></g></g><g style="fill:#ffffff;fill-opacity:1;"><g transform="translate(137.877958, 231.82853)"><path style="stroke:none" d="M 4.21875 -3.75 L 1.90625 -3.75 L 1.90625 -5.5 L 4.421875 -5.5 L 4.421875 -6.5625 L 0.703125 -6.5625 L 0.703125 0 L 1.90625 0 L 1.90625 -2.71875 L 4.21875 -2.71875 Z M 4.21875 -3.75 "/></g></g><g style="fill:#ffffff;fill-opacity:1;"><g transform="translate(145.019242, 231.82853)"><path style="stroke:none" d="M 2.03125 0 L 2.03125 -6.5625 L 0.828125 -6.5625 L 0.828125 0 Z M 2.03125 0 "/></g></g><g style="fill:#ffffff;fill-opacity:1;"><g transform="translate(150.476082, 231.82853)"><path style="stroke:none" d="M 2.8125 0 L 2.8125 -5.5 L 4.375 -5.5 L 4.375 -6.5625 L 0.046875 -6.5625 L 0.046875 -5.5 L 1.609375 -5.5 L 1.609375 0 Z M 2.8125 0 "/></g></g><g style="fill:#ffffff;fill-opacity:1;"><g transform="translate(157.514027, 231.82853)"><path style="stroke:none" d="M 4.578125 0 L 5.4375 0 L 5.4375 -6.5625 L 4.375 -6.5625 L 4.375 -2.15625 L 1.484375 -6.5625 L 0.625 -6.5625 L 0.625 0 L 1.671875 0 L 1.671875 -4.40625 Z M 4.578125 0 "/></g></g><g style="fill:#ffffff;fill-opacity:1;"><g transform="translate(166.184745, 231.82853)"><path style="stroke:none" d="M 4.5625 0 L 4.5625 -1.046875 L 1.90625 -1.046875 L 1.90625 -2.8125 L 4.3125 -2.8125 L 4.3125 -3.859375 L 1.90625 -3.859375 L 1.90625 -5.5 L 4.515625 -5.5 L 4.515625 -6.5625 L 0.703125 -6.5625 L 0.703125 0 Z M 4.5625 0 "/></g></g><g style="fill:#ffffff;fill-opacity:1;"><g transform="translate(173.677386, 231.82853)"><path style="stroke:none" d="M 1.71875 -3.84375 C 1.632812 -3.851562 1.59375 -3.898438 1.59375 -3.984375 L 1.59375 -5.359375 C 1.601562 -5.453125 1.644531 -5.5 1.71875 -5.5 L 4.453125 -5.5 L 4.453125 -6.5625 L 2.046875 -6.59375 C 1.203125 -6.613281 0.664062 -6.3125 0.4375 -5.6875 C 0.375 -5.5 0.34375 -5.296875 0.34375 -5.078125 L 0.34375 -4.25 C 0.34375 -3.3125 0.84375 -2.816406 1.84375 -2.765625 C 1.90625 -2.753906 1.96875 -2.75 2.03125 -2.75 L 3.296875 -2.75 C 3.378906 -2.738281 3.421875 -2.691406 3.421875 -2.609375 L 3.421875 -1.203125 C 3.410156 -1.109375 3.367188 -1.054688 3.296875 -1.046875 L 0.484375 -1.046875 L 0.484375 0 L 2.984375 0.046875 C 3.910156 0.0664062 4.457031 -0.285156 4.625 -1.015625 C 4.65625 -1.160156 4.671875 -1.3125 4.671875 -1.46875 L 4.671875 -2.328125 C 4.671875 -3.117188 4.296875 -3.601562 3.546875 -3.78125 C 3.367188 -3.820312 3.175781 -3.84375 2.96875 -3.84375 Z M 1.71875 -3.84375 "/></g></g><g style="fill:#ffffff;fill-opacity:1;"><g transform="translate(181.273367, 231.82853)"><path style="stroke:none" d="M 1.71875 -3.84375 C 1.632812 -3.851562 1.59375 -3.898438 1.59375 -3.984375 L 1.59375 -5.359375 C 1.601562 -5.453125 1.644531 -5.5 1.71875 -5.5 L 4.453125 -5.5 L 4.453125 -6.5625 L 2.046875 -6.59375 C 1.203125 -6.613281 0.664062 -6.3125 0.4375 -5.6875 C 0.375 -5.5 0.34375 -5.296875 0.34375 -5.078125 L 0.34375 -4.25 C 0.34375 -3.3125 0.84375 -2.816406 1.84375 -2.765625 C 1.90625 -2.753906 1.96875 -2.75 2.03125 -2.75 L 3.296875 -2.75 C 3.378906 -2.738281 3.421875 -2.691406 3.421875 -2.609375 L 3.421875 -1.203125 C 3.410156 -1.109375 3.367188 -1.054688 3.296875 -1.046875 L 0.484375 -1.046875 L 0.484375 0 L 2.984375 0.046875 C 3.910156 0.0664062 4.457031 -0.285156 4.625 -1.015625 C 4.65625 -1.160156 4.671875 -1.3125 4.671875 -1.46875 L 4.671875 -2.328125 C 4.671875 -3.117188 4.296875 -3.601562 3.546875 -3.78125 C 3.367188 -3.820312 3.175781 -3.84375 2.96875 -3.84375 Z M 1.71875 -3.84375 "/></g></g><g style="fill:#ffffff;fill-opacity:1;"><g transform="translate(188.869349, 231.82853)"><path style="stroke:none" d=""/></g></g><g style="fill:#ffffff;fill-opacity:1;"><g transform="translate(193.540804, 231.82853)"><path style="stroke:none" d="M 4.375 -1.09375 L 1.9375 -1.09375 C 1.863281 -1.101562 1.820312 -1.144531 1.8125 -1.21875 L 1.8125 -5.34375 C 1.832031 -5.414062 1.875 -5.457031 1.9375 -5.46875 L 4.375 -5.46875 L 4.375 -6.5625 L 2.203125 -6.5625 C 1.191406 -6.5625 0.65625 -6.144531 0.59375 -5.3125 C 0.59375 -5.25 0.59375 -5.1875 0.59375 -5.125 L 0.59375 -1.4375 C 0.601562 -0.488281 1.140625 -0.0078125 2.203125 0 L 4.375 0 Z M 4.375 -1.09375 "/></g></g><g style="fill:#ffffff;fill-opacity:1;"><g transform="translate(200.692422, 231.82853)"><path style="stroke:none" d="M 4.5625 0 L 4.5625 -1.046875 L 1.90625 -1.046875 L 1.90625 -2.8125 L 4.3125 -2.8125 L 4.3125 -3.859375 L 1.90625 -3.859375 L 1.90625 -5.5 L 4.515625 -5.5 L 4.515625 -6.5625 L 0.703125 -6.5625 L 0.703125 0 Z M 4.5625 0 "/></g></g><g style="fill:#ffffff;fill-opacity:1;"><g transform="translate(208.185063, 231.82853)"><path style="stroke:none" d="M 4.578125 0 L 5.4375 0 L 5.4375 -6.5625 L 4.375 -6.5625 L 4.375 -2.15625 L 1.484375 -6.5625 L 0.625 -6.5625 L 0.625 0 L 1.671875 0 L 1.671875 -4.40625 Z M 4.578125 0 "/></g></g><g style="fill:#ffffff;fill-opacity:1;"><g transform="translate(216.855782, 231.82853)"><path style="stroke:none" d="M 2.8125 0 L 2.8125 -5.5 L 4.375 -5.5 L 4.375 -6.5625 L 0.046875 -6.5625 L 0.046875 -5.5 L 1.609375 -5.5 L 1.609375 0 Z M 2.8125 0 "/></g></g><g style="fill:#ffffff;fill-opacity:1;"><g transform="translate(223.893726, 231.82853)"><path style="stroke:none" d="M 4.5625 0 L 4.5625 -1.046875 L 1.90625 -1.046875 L 1.90625 -2.8125 L 4.3125 -2.8125 L 4.3125 -3.859375 L 1.90625 -3.859375 L 1.90625 -5.5 L 4.515625 -5.5 L 4.515625 -6.5625 L 0.703125 -6.5625 L 0.703125 0 Z M 4.5625 0 "/></g></g><g style="fill:#ffffff;fill-opacity:1;"><g transform="translate(231.386367, 231.82853)"><path style="stroke:none" d="M 1.953125 0 L 1.953125 -2.5 L 3.25 -2.5 C 3.332031 -2.5 3.390625 -2.460938 3.421875 -2.390625 C 3.421875 -2.367188 3.421875 -2.359375 3.421875 -2.359375 L 4.21875 0 L 5.4375 0 L 4.734375 -1.96875 C 4.617188 -2.289062 4.46875 -2.515625 4.28125 -2.640625 C 4.882812 -2.890625 5.191406 -3.359375 5.203125 -4.046875 L 5.203125 -5.09375 C 5.203125 -5.957031 4.796875 -6.445312 3.984375 -6.5625 C 3.835938 -6.582031 3.679688 -6.59375 3.515625 -6.59375 L 0.75 -6.5625 L 0.75 0 Z M 3.8125 -5.546875 C 3.90625 -5.535156 3.953125 -5.488281 3.953125 -5.40625 L 3.953125 -3.671875 C 3.941406 -3.585938 3.894531 -3.546875 3.8125 -3.546875 L 1.953125 -3.546875 L 1.953125 -5.546875 Z M 3.8125 -5.546875 "/></g></g><g style="fill:#ffffff;fill-opacity:1;"><g transform="translate(239.705729, 231.82853)"><path style="stroke:none" d=""/></g></g><g style="fill:#ffffff;fill-opacity:1;"><g transform="translate(244.377184, 231.82853)"><path style="stroke:none" d="M 0.6875 -2.484375 C 0.6875 -2.078125 0.890625 -1.859375 1.296875 -1.828125 C 1.335938 -1.816406 1.382812 -1.8125 1.4375 -1.8125 L 1.609375 -1.8125 C 2.078125 -1.8125 2.328125 -2 2.359375 -2.375 C 2.359375 -2.40625 2.359375 -2.441406 2.359375 -2.484375 L 2.359375 -3.28125 C 2.359375 -3.6875 2.164062 -3.90625 1.78125 -3.9375 C 1.71875 -3.945312 1.660156 -3.953125 1.609375 -3.953125 L 1.4375 -3.953125 C 0.976562 -3.953125 0.726562 -3.769531 0.6875 -3.40625 C 0.6875 -3.363281 0.6875 -3.320312 0.6875 -3.28125 Z M 0.6875 -2.484375 "/></g></g><g style="fill:#ffffff;fill-opacity:1;"><g transform="translate(104.237656, 170.295985)"><path style="stroke:none" d="M 1.5625 -3.484375 C 1.488281 -3.492188 1.445312 -3.535156 1.4375 -3.609375 L 1.4375 -4.859375 C 1.445312 -4.929688 1.488281 -4.972656 1.5625 -4.984375 L 4.03125 -4.984375 L 4.03125 -5.9375 L 1.859375 -5.984375 C 1.085938 -5.992188 0.601562 -5.71875 0.40625 -5.15625 C 0.34375 -4.988281 0.3125 -4.804688 0.3125 -4.609375 L 0.3125 -3.859375 C 0.3125 -3.003906 0.765625 -2.550781 1.671875 -2.5 C 1.734375 -2.488281 1.789062 -2.484375 1.84375 -2.484375 L 2.984375 -2.484375 C 3.054688 -2.472656 3.097656 -2.429688 3.109375 -2.359375 L 3.109375 -1.078125 C 3.097656 -1.003906 3.054688 -0.960938 2.984375 -0.953125 L 0.4375 -0.953125 L 0.4375 0 L 2.703125 0.03125 C 3.546875 0.0625 4.039062 -0.253906 4.1875 -0.921875 C 4.21875 -1.046875 4.234375 -1.179688 4.234375 -1.328125 L 4.234375 -2.109375 C 4.234375 -2.828125 3.894531 -3.265625 3.21875 -3.421875 C 3.050781 -3.460938 2.875 -3.484375 2.6875 -3.484375 Z M 1.5625 -3.484375 "/></g></g><g style="fill:#ffffff;fill-opacity:1;"><g transform="translate(111.112282, 170.295985)"><path style="stroke:none" d="M 1.84375 0 L 1.84375 -5.9375 L 0.75 -5.9375 L 0.75 0 Z M 1.84375 0 "/></g></g><g style="fill:#ffffff;fill-opacity:1;"><g transform="translate(116.051494, 170.295985)"><path style="stroke:none" d="M 4.140625 0 L 4.921875 0 L 4.921875 -5.9375 L 3.96875 -5.9375 L 3.96875 -1.953125 L 1.34375 -5.9375 L 0.578125 -5.9375 L 0.578125 0 L 1.515625 0 L 1.515625 -4 Z M 4.140625 0 "/></g></g><g style="fill:#ffffff;fill-opacity:1;"><g transform="translate(123.898501, 170.295985)"><path style="stroke:none" d="M 3.96875 -0.984375 L 1.765625 -0.984375 C 1.691406 -1.003906 1.648438 -1.046875 1.640625 -1.109375 L 1.640625 -4.828125 C 1.660156 -4.898438 1.703125 -4.941406 1.765625 -4.953125 L 3.96875 -4.953125 L 3.96875 -5.9375 L 2 -5.9375 C 1.082031 -5.9375 0.597656 -5.5625 0.546875 -4.8125 C 0.535156 -4.75 0.53125 -4.691406 0.53125 -4.640625 L 0.53125 -1.296875 C 0.539062 -0.441406 1.03125 -0.0078125 2 0 L 3.96875 0 Z M 3.96875 -0.984375 "/></g></g><g style="fill:#ffffff;fill-opacity:1;"><g transform="translate(130.371085, 170.295985)"><path style="stroke:none" d="M 4.140625 0 L 4.140625 -0.953125 L 1.734375 -0.953125 L 1.734375 -2.546875 L 3.90625 -2.546875 L 3.90625 -3.484375 L 1.734375 -3.484375 L 1.734375 -4.984375 L 4.09375 -4.984375 L 4.09375 -5.9375 L 0.640625 -5.9375 L 0.640625 0 Z M 4.140625 0 "/></g></g><g style="fill:#ffffff;fill-opacity:1;"><g transform="translate(240.192982, 170.295985)"><path style="stroke:none" d="M 0.390625 -1.765625 L 0.390625 0 L 4.078125 0 L 4.078125 -0.953125 L 1.5 -0.953125 L 1.5 -1.75 C 1.5 -1.882812 1.539062 -1.984375 1.625 -2.046875 C 1.644531 -2.046875 1.660156 -2.050781 1.671875 -2.0625 L 3.25 -2.875 C 3.65625 -3.082031 3.910156 -3.289062 4.015625 -3.5 C 4.078125 -3.644531 4.109375 -3.804688 4.109375 -3.984375 L 4.109375 -4.671875 C 4.109375 -5.515625 3.707031 -5.953125 2.90625 -5.984375 C 2.851562 -5.984375 2.800781 -5.984375 2.75 -5.984375 L 0.53125 -5.9375 L 0.53125 -4.984375 L 2.890625 -4.984375 C 2.960938 -4.972656 3.003906 -4.929688 3.015625 -4.859375 L 3.015625 -3.953125 C 3.003906 -3.890625 2.957031 -3.832031 2.875 -3.78125 L 1.21875 -2.921875 C 0.875 -2.753906 0.660156 -2.609375 0.578125 -2.484375 C 0.453125 -2.304688 0.390625 -2.066406 0.390625 -1.765625 Z M 0.390625 -1.765625 "/></g></g><g style="fill:#ffffff;fill-opacity:1;"><g transform="translate(246.98346, 170.295985)"><path style="stroke:none" d="M 3.421875 -5.03125 C 3.492188 -5.03125 3.53125 -4.992188 3.53125 -4.921875 L 3.53125 -1.015625 C 3.53125 -0.941406 3.492188 -0.90625 3.421875 -0.90625 L 1.875 -0.90625 C 1.800781 -0.90625 1.765625 -0.941406 1.765625 -1.015625 L 1.765625 -4.921875 C 1.765625 -4.992188 1.800781 -5.03125 1.875 -5.03125 Z M 0.640625 -1.21875 C 0.640625 -0.382812 1.082031 0.046875 1.96875 0.078125 C 2.007812 0.078125 2.050781 0.078125 2.09375 0.078125 L 3.203125 0.078125 C 4.148438 0.0351562 4.632812 -0.394531 4.65625 -1.21875 L 4.65625 -4.71875 C 4.644531 -5.582031 4.160156 -6.019531 3.203125 -6.03125 L 2.09375 -6.03125 C 1.125 -6.007812 0.640625 -5.570312 0.640625 -4.71875 Z M 0.640625 -1.21875 "/></g></g><g style="fill:#ffffff;fill-opacity:1;"><g transform="translate(254.634121, 170.295985)"><path style="stroke:none" d="M 0.390625 -1.765625 L 0.390625 0 L 4.078125 0 L 4.078125 -0.953125 L 1.5 -0.953125 L 1.5 -1.75 C 1.5 -1.882812 1.539062 -1.984375 1.625 -2.046875 C 1.644531 -2.046875 1.660156 -2.050781 1.671875 -2.0625 L 3.25 -2.875 C 3.65625 -3.082031 3.910156 -3.289062 4.015625 -3.5 C 4.078125 -3.644531 4.109375 -3.804688 4.109375 -3.984375 L 4.109375 -4.671875 C 4.109375 -5.515625 3.707031 -5.953125 2.90625 -5.984375 C 2.851562 -5.984375 2.800781 -5.984375 2.75 -5.984375 L 0.53125 -5.9375 L 0.53125 -4.984375 L 2.890625 -4.984375 C 2.960938 -4.972656 3.003906 -4.929688 3.015625 -4.859375 L 3.015625 -3.953125 C 3.003906 -3.890625 2.957031 -3.832031 2.875 -3.78125 L 1.21875 -2.921875 C 0.875 -2.753906 0.660156 -2.609375 0.578125 -2.484375 C 0.453125 -2.304688 0.390625 -2.066406 0.390625 -1.765625 Z M 0.390625 -1.765625 "/></g></g><g style="fill:#ffffff;fill-opacity:1;"><g transform="translate(261.424598, 170.295985)"><path style="stroke:none" d="M 1.546875 -3.71875 L 1.546875 -4.984375 L 3.78125 -4.984375 L 3.78125 -5.9375 L 0.453125 -5.9375 L 0.453125 -2.78125 L 2.78125 -2.78125 C 2.863281 -2.769531 2.90625 -2.722656 2.90625 -2.640625 L 2.90625 -1.078125 C 2.894531 -1.003906 2.851562 -0.960938 2.78125 -0.953125 L 0.40625 -0.953125 L 0.40625 0 L 2.5 0.03125 C 3.34375 0.0625 3.835938 -0.253906 3.984375 -0.921875 C 4.015625 -1.046875 4.03125 -1.179688 4.03125 -1.328125 L 4.03125 -2.359375 C 4.03125 -3.078125 3.691406 -3.515625 3.015625 -3.671875 C 2.859375 -3.703125 2.6875 -3.71875 2.5 -3.71875 Z M 1.546875 -3.71875 "/></g></g></g></svg>