<svg xmlns="http://www.w3.org/2000/svg" xmlns:xlink="http://www.w3.org/1999/xlink" width="500" zoomAndPan="magnify" viewBox="0 0 375 374.999991" height="500" preserveAspectRatio="xMidYMid meet" version="1.2"><defs><clipPath id="5d0d2fbd33"><path d="M 128 35.265625 L 141 35.265625 L 141 45 L 128 45 Z M 128 35.265625 "/></clipPath><clipPath id="ce0f290297"><path d="M 338 186 L 359.996094 186 L 359.996094 212 L 338 212 Z M 338 186 "/></clipPath><clipPath id="e10835b616"><path d="M 234 35.265625 L 247 35.265625 L 247 45 L 234 45 Z M 234 35.265625 "/></clipPath><clipPath id="94563ee43a"><path d="M 213 104.648438 L 292 104.648438 L 292 179 L 213 179 Z M 213 104.648438 "/></clipPath><clipPath id="a16d6d097a"><path d="M 289 143 L 314.609375 143 L 314.609375 177 L 289 177 Z M 289 143 "/></clipPath><clipPath id="4061618989"><path d="M 60.359375 143 L 86 143 L 86 177 L 60.359375 177 Z M 60.359375 143 "/></clipPath><clipPath id="3ea8750820"><path d="M 83 104.648438 L 162 104.648438 L 162 179 L 83 179 Z M 83 104.648438 "/></clipPath><clipPath id="208e902d57"><path d="M 126 143 L 249 143 L 249 270.398438 L 126 270.398438 Z M 126 143 "/></clipPath></defs><g id="e3ab6b65b6"><rect x="0" width="375" y="0" height="374.999991" style="fill:#ffffff;fill-opacity:1;stroke:none;"/><rect x="0" width="375" y="0" height="374.999991" style="fill:#ffffff;fill-opacity:1;stroke:none;"/><path style=" stroke:none;fill-rule:nonzero;fill:#25323b;fill-opacity:1;" d="M 29.761719 171.300781 C 33.621094 177.601562 33.402344 187.929688 33.484375 187.984375 C 33.511719 187.929688 25.796875 189.3125 21.242188 183.015625 C 16.597656 176.632812 18.109375 164.988281 18.195312 165.050781 C 18.226562 165.003906 25.847656 164.945312 29.761719 171.300781 "/><path style=" stroke:none;fill-rule:nonzero;fill:#25323b;fill-opacity:1;" d="M 38.386719 171.753906 C 33.53125 177.359375 34.492188 187.984375 34.578125 187.929688 C 34.605469 187.984375 42.21875 188.21875 46.429688 182.613281 C 50.570312 177.058594 50.722656 167.789062 50.792969 167.742188 C 50.816406 167.804688 43.167969 166.214844 38.386719 171.753906 "/><path style=" stroke:none;fill-rule:nonzero;fill:#25323b;fill-opacity:1;" d="M 32.535156 152.019531 C 35.335938 158.332031 33.761719 167.992188 33.820312 168.042969 C 33.851562 167.996094 26.453125 168.425781 23.019531 162.035156 C 19.527344 155.574219 22.417969 144.882812 22.492188 144.933594 C 22.523438 144.898438 29.675781 145.644531 32.535156 152.019531 "/><path style=" stroke:none;fill-rule:nonzero;fill:#25323b;fill-opacity:1;" d="M 40.554688 153.363281 C 35.277344 158.101562 34.773438 168.15625 34.851562 168.109375 C 34.871094 168.167969 41.96875 169.261719 46.65625 164.441406 C 51.28125 159.683594 52.625 150.941406 52.691406 150.910156 C 52.710938 150.957031 45.738281 148.667969 40.554688 153.363281 "/><path style=" stroke:none;fill-rule:nonzero;fill:#25323b;fill-opacity:1;" d="M 37.933594 133.191406 C 39.726562 139.390625 36.949219 148.253906 37 148.296875 C 37.039062 148.261719 30.078125 147.828125 27.738281 141.507812 C 25.339844 135.101562 29.414062 125.457031 29.46875 125.523438 C 29.511719 125.492188 36.089844 126.929688 37.933594 133.191406 "/><path style=" stroke:none;fill-rule:nonzero;fill:#25323b;fill-opacity:1;" d="M 45.25 135.300781 C 39.703125 139.183594 37.878906 148.511719 37.949219 148.484375 C 37.96875 148.527344 44.441406 150.359375 49.46875 146.359375 C 54.425781 142.402344 56.84375 134.296875 56.90625 134.273438 C 56.917969 134.316406 50.710938 131.460938 45.25 135.300781 "/><path style=" stroke:none;fill-rule:nonzero;fill:#25323b;fill-opacity:1;" d="M 45.953125 115.089844 C 46.785156 121.066406 42.988281 129.027344 43.027344 129.066406 C 43.0625 129.03125 36.664062 127.855469 35.347656 121.722656 C 33.980469 115.527344 39.054688 106.996094 39.101562 107.0625 C 39.140625 107.03125 45.082031 109.070312 45.953125 115.089844 "/><path style=" stroke:none;fill-rule:nonzero;fill:#25323b;fill-opacity:1;" d="M 52.480469 117.839844 C 46.789062 120.882812 43.8125 129.367188 43.886719 129.351562 C 43.894531 129.386719 49.652344 131.820312 54.894531 128.625 C 60.054688 125.460938 63.425781 118.097656 63.488281 118.09375 C 63.488281 118.128906 58.089844 114.824219 52.480469 117.839844 "/><path style=" stroke:none;fill-rule:nonzero;fill:#25323b;fill-opacity:1;" d="M 56.582031 97.996094 C 56.527344 103.640625 51.867188 110.613281 51.894531 110.65625 C 51.925781 110.640625 46.171875 108.824219 45.8125 103 C 45.410156 97.121094 51.300781 89.769531 51.335938 89.824219 C 51.371094 89.800781 56.625 92.3125 56.582031 97.996094 "/><path style=" stroke:none;fill-rule:nonzero;fill:#25323b;fill-opacity:1;" d="M 62.269531 101.242188 C 56.546875 103.476562 52.585938 111.019531 52.65625 111.015625 C 52.65625 111.050781 57.644531 113.957031 62.957031 111.546875 C 68.214844 109.148438 72.417969 102.609375 72.472656 102.609375 C 72.472656 102.644531 67.910156 99.023438 62.269531 101.242188 "/><path style=" stroke:none;fill-rule:nonzero;fill:#25323b;fill-opacity:1;" d="M 67.644531 84.539062 C 66.890625 89.753906 61.6875 95.796875 61.710938 95.828125 C 61.746094 95.824219 56.648438 93.59375 57.03125 88.179688 C 57.394531 82.71875 63.730469 76.464844 63.761719 76.515625 C 63.800781 76.5 68.375 79.273438 67.644531 84.539062 "/><path style=" stroke:none;fill-rule:nonzero;fill:#25323b;fill-opacity:1;" d="M 72.515625 88.042969 C 66.921875 89.621094 62.304688 96.230469 62.367188 96.230469 C 62.363281 96.269531 66.605469 99.433594 71.855469 97.675781 C 77.042969 95.921875 81.773438 90.183594 81.839844 90.1875 C 81.832031 90.226562 78.039062 86.472656 72.515625 88.042969 "/><path style=" stroke:none;fill-rule:nonzero;fill:#25323b;fill-opacity:1;" d="M 121.035156 318.042969 C 135.078125 317.773438 155.972656 324.359375 156.320312 324.207031 C 156.242188 324.089844 155.171875 335.503906 139.289062 337.492188 C 122.949219 339.621094 101.265625 328.445312 101.671875 328.289062 C 101.609375 328.160156 106.601562 318.421875 121.035156 318.042969 "/><path style=" stroke:none;fill-rule:nonzero;fill:#25323b;fill-opacity:1;" d="M 127.351562 307.085938 C 134.285156 317.601562 156.734375 322.984375 156.789062 322.707031 C 157.03125 322.6875 161.066406 312.597656 152.503906 303.628906 C 143.992188 294.828125 128.476562 288.351562 128.488281 288.15625 C 128.703125 288.160156 120.40625 296.882812 127.351562 307.085938 "/><path style=" stroke:none;fill-rule:nonzero;fill:#25323b;fill-opacity:1;" d="M 88.769531 299.113281 C 101.253906 301.085938 117.3125 310.417969 117.605469 310.332031 C 117.554688 310.207031 113.453125 320.328125 99.34375 319.605469 C 84.863281 318.945312 68.757812 305.476562 69.09375 305.40625 C 69.054688 305.285156 75.980469 297.195312 88.769531 299.113281 "/><path style=" stroke:none;fill-rule:nonzero;fill:#25323b;fill-opacity:1;" d="M 97.183594 290.171875 C 100.628906 300.816406 118.347656 309.28125 118.421875 309.054688 C 118.601562 309.0625 124.972656 300.628906 120.0625 291.101562 C 115.160156 281.746094 102.960938 273.289062 103.003906 273.117188 C 103.164062 273.164062 93.675781 279.789062 97.183594 290.171875 "/><path style=" stroke:none;fill-rule:nonzero;fill:#25323b;fill-opacity:1;" d="M 63.488281 275.445312 C 74.25 279.246094 85.941406 290.351562 86.183594 290.320312 C 86.160156 290.203125 79.882812 298.636719 67.671875 295.695312 C 55.171875 292.75 44.03125 278.027344 44.296875 278.015625 C 44.292969 277.902344 52.476562 271.644531 63.488281 275.445312 "/><path style=" stroke:none;fill-rule:nonzero;fill:#25323b;fill-opacity:1;" d="M 73.210938 268.6875 C 73.789062 278.933594 87.148438 289.492188 87.246094 289.300781 C 87.386719 289.339844 95.285156 282.808594 93.414062 273.328125 C 91.515625 264.023438 82.457031 254.25 82.511719 254.101562 C 82.632812 254.152344 72.558594 258.675781 73.210938 268.6875 "/><path style=" stroke:none;fill-rule:nonzero;fill:#25323b;fill-opacity:1;" d="M 45.132812 248.191406 C 54.089844 253.414062 61.863281 265.453125 62.050781 265.453125 C 62.050781 265.351562 54.351562 271.871094 44.144531 267.191406 C 33.691406 262.464844 26.914062 247.378906 27.128906 247.40625 C 27.136719 247.300781 35.988281 242.9375 45.132812 248.191406 "/><path style=" stroke:none;fill-rule:nonzero;fill:#25323b;fill-opacity:1;" d="M 55.480469 243.660156 C 53.75 253.078125 63.160156 264.867188 63.257812 264.710938 C 63.359375 264.765625 72.105469 260.230469 72.703125 251.3125 C 73.246094 242.523438 67.101562 232 67.175781 231.890625 C 67.265625 231.953125 57.125 234.4375 55.480469 243.660156 "/><path style=" stroke:none;fill-rule:nonzero;fill:#25323b;fill-opacity:1;" d="M 33.667969 218.519531 C 40.75 224.746094 45.0625 236.972656 45.207031 237.007812 C 45.222656 236.929688 36.777344 241.453125 28.597656 235.515625 C 20.238281 229.5 17.246094 214.804688 17.410156 214.851562 C 17.4375 214.765625 26.441406 212.246094 33.667969 218.519531 "/><path style=" stroke:none;fill-rule:nonzero;fill:#25323b;fill-opacity:1;" d="M 44.050781 216.128906 C 40.519531 224.40625 46.363281 236.667969 46.464844 236.550781 C 46.535156 236.605469 55.53125 234.046875 58.0625 226.035156 C 60.53125 218.128906 57.082031 207.421875 57.167969 207.328125 C 57.230469 207.398438 47.484375 208.007812 44.050781 216.128906 "/><path style=" stroke:none;fill-rule:nonzero;fill:#25323b;fill-opacity:1;" d="M 29.367188 192.378906 C 34.792969 199.03125 36.480469 210.832031 36.589844 210.871094 C 36.625 210.792969 28.089844 213.640625 21.726562 207.082031 C 15.214844 200.429688 14.976562 186.71875 15.109375 186.78125 C 15.152344 186.710938 23.820312 185.636719 29.367188 192.378906 "/><path style=" stroke:none;fill-rule:nonzero;fill:#25323b;fill-opacity:1;" d="M 39.277344 191.667969 C 34.644531 198.726562 37.734375 210.730469 37.828125 210.640625 C 37.882812 210.695312 46.570312 209.738281 50.339844 202.777344 C 54.03125 195.890625 52.679688 185.503906 52.765625 185.441406 C 52.804688 185.503906 43.796875 184.707031 39.277344 191.667969 "/><path style=" stroke:none;fill-rule:nonzero;fill:#25323b;fill-opacity:1;" d="M 80.542969 72.164062 C 79.179688 76.90625 73.574219 81.988281 73.59375 82.023438 C 73.621094 82.019531 69.222656 79.496094 70.273438 74.554688 C 71.308594 69.570312 77.949219 64.386719 77.964844 64.4375 C 77.996094 64.421875 81.894531 67.375 80.542969 72.164062 "/><path style=" stroke:none;fill-rule:nonzero;fill:#25323b;fill-opacity:1;" d="M 84.613281 75.808594 C 79.226562 76.792969 74.09375 82.449219 74.144531 82.457031 C 74.144531 82.484375 77.640625 85.796875 82.734375 84.652344 C 87.769531 83.492188 92.9375 78.59375 92.988281 78.597656 C 92.980469 78.625 89.933594 74.839844 84.613281 75.808594 "/><path style=" stroke:none;fill-rule:nonzero;fill:#25323b;fill-opacity:1;" d="M 95.285156 61.019531 C 93.394531 65.253906 87.527344 69.402344 87.539062 69.433594 C 87.574219 69.425781 83.851562 66.707031 85.496094 62.296875 C 87.117188 57.835938 93.910156 53.695312 93.925781 53.726562 C 93.953125 53.726562 97.171875 56.761719 95.285156 61.019531 "/><path style=" stroke:none;fill-rule:nonzero;fill:#25323b;fill-opacity:1;" d="M 98.566406 64.71875 C 93.449219 65.148438 87.941406 69.867188 87.988281 69.871094 C 87.988281 69.898438 90.742188 73.257812 95.617188 72.65625 C 100.4375 72.046875 105.910156 67.96875 105.953125 67.980469 C 105.949219 68 103.628906 64.28125 98.566406 64.71875 "/><path style=" stroke:none;fill-rule:nonzero;fill:#25323b;fill-opacity:1;" d="M 110.292969 52.125 C 108.019531 55.824219 102.085938 59.117188 102.089844 59.140625 C 102.113281 59.140625 99.070312 56.359375 101.128906 52.496094 C 103.179688 48.597656 109.925781 45.367188 109.933594 45.402344 C 109.96875 45.394531 112.558594 48.398438 110.292969 52.125 "/><path style=" stroke:none;fill-rule:nonzero;fill:#25323b;fill-opacity:1;" d="M 112.847656 55.742188 C 108.070312 55.742188 102.40625 59.574219 102.449219 59.585938 C 102.441406 59.597656 104.535156 62.890625 109.105469 62.730469 C 113.628906 62.558594 119.234375 59.257812 119.273438 59.257812 C 119.257812 59.28125 117.574219 55.726562 112.847656 55.742188 "/><path style=" stroke:none;fill-rule:nonzero;fill:#25323b;fill-opacity:1;" d="M 125.089844 45.226562 C 122.589844 48.414062 116.753906 50.933594 116.757812 50.957031 C 116.777344 50.957031 114.34375 48.234375 116.671875 44.914062 C 119.007812 41.550781 125.519531 39.121094 125.523438 39.15625 C 125.550781 39.15625 127.597656 42.03125 125.089844 45.226562 "/><path style=" stroke:none;fill-rule:nonzero;fill:#25323b;fill-opacity:1;" d="M 127.019531 48.660156 C 122.640625 48.335938 116.996094 51.363281 117.03125 51.378906 C 117.023438 51.390625 118.535156 54.511719 122.746094 54.691406 C 126.929688 54.863281 132.480469 52.257812 132.511719 52.265625 C 132.5 52.273438 131.351562 48.96875 127.019531 48.660156 "/><path style=" stroke:none;fill-rule:nonzero;fill:#25323b;fill-opacity:1;" d="M 138.671875 43.585938 C 134.292969 43.65625 129.457031 46.535156 129.484375 46.535156 C 129.492188 46.558594 131.640625 48.941406 135.824219 48.789062 C 139.976562 48.625 144.898438 46.109375 144.925781 46.117188 C 144.925781 46.121094 143.027344 43.503906 138.671875 43.585938 "/><g clip-rule="nonzero" clip-path="url(#5d0d2fbd33)"><path style=" stroke:none;fill-rule:nonzero;fill:#25323b;fill-opacity:1;" d="M 137.503906 40.996094 C 134.195312 43.539062 128.597656 44.835938 128.589844 44.863281 C 128.605469 44.867188 127.808594 41.832031 131.074219 39.160156 C 134.324219 36.460938 140.464844 35.367188 140.464844 35.382812 C 140.472656 35.390625 140.796875 38.441406 137.503906 40.996094 "/></g><path style=" stroke:none;fill-rule:nonzero;fill:#25323b;fill-opacity:1;" d="M 147.046875 36.988281 C 142.191406 38.394531 139.40625 41.832031 139.421875 41.832031 C 139.429688 41.832031 144.027344 42.703125 148.683594 41.351562 C 153.335938 39.992188 156.625 36.835938 156.636719 36.828125 C 156.660156 36.824219 151.902344 35.578125 147.046875 36.988281 "/><path style=" stroke:none;fill-rule:nonzero;fill:#25323b;fill-opacity:1;" d="M 345.226562 171.300781 C 341.375 177.601562 341.59375 187.929688 341.507812 187.984375 C 341.480469 187.929688 349.195312 189.3125 353.746094 183.015625 C 358.390625 176.632812 356.886719 164.988281 356.796875 165.050781 C 356.761719 165.003906 349.144531 164.945312 345.226562 171.300781 "/><path style=" stroke:none;fill-rule:nonzero;fill:#25323b;fill-opacity:1;" d="M 336.597656 171.753906 C 341.464844 177.359375 340.507812 187.984375 340.414062 187.929688 C 340.386719 187.984375 332.773438 188.21875 328.566406 182.613281 C 324.417969 177.058594 324.273438 167.789062 324.199219 167.742188 C 324.171875 167.804688 331.828125 166.214844 336.597656 171.753906 "/><path style=" stroke:none;fill-rule:nonzero;fill:#25323b;fill-opacity:1;" d="M 342.460938 152.019531 C 339.660156 158.332031 341.234375 167.992188 341.171875 168.042969 C 341.140625 167.996094 348.539062 168.425781 351.96875 162.035156 C 355.472656 155.574219 352.582031 144.882812 352.503906 144.933594 C 352.464844 144.898438 345.3125 145.644531 342.460938 152.019531 "/><path style=" stroke:none;fill-rule:nonzero;fill:#25323b;fill-opacity:1;" d="M 334.429688 153.363281 C 339.710938 158.101562 340.21875 168.15625 340.140625 168.109375 C 340.121094 168.167969 333.023438 169.261719 328.332031 164.441406 C 323.714844 159.683594 322.375 150.941406 322.300781 150.910156 C 322.289062 150.957031 329.25 148.667969 334.429688 153.363281 "/><path style=" stroke:none;fill-rule:nonzero;fill:#25323b;fill-opacity:1;" d="M 337.054688 133.191406 C 335.265625 139.390625 338.039062 148.253906 337.988281 148.296875 C 337.953125 148.261719 344.914062 147.828125 347.253906 141.507812 C 349.65625 135.101562 345.578125 125.457031 345.523438 125.523438 C 345.480469 125.492188 338.898438 126.929688 337.054688 133.191406 "/><path style=" stroke:none;fill-rule:nonzero;fill:#25323b;fill-opacity:1;" d="M 329.746094 135.300781 C 335.292969 139.183594 337.121094 148.511719 337.035156 148.484375 C 337.027344 148.527344 330.546875 150.359375 325.527344 146.359375 C 320.566406 142.402344 318.152344 134.296875 318.082031 134.273438 C 318.074219 134.316406 324.28125 131.460938 329.746094 135.300781 "/><path style=" stroke:none;fill-rule:nonzero;fill:#25323b;fill-opacity:1;" d="M 329.035156 115.089844 C 328.203125 121.066406 332.011719 129.027344 331.964844 129.066406 C 331.929688 129.03125 338.324219 127.855469 339.644531 121.722656 C 341.011719 115.527344 335.9375 106.996094 335.894531 107.0625 C 335.851562 107.03125 329.902344 109.070312 329.035156 115.089844 "/><path style=" stroke:none;fill-rule:nonzero;fill:#25323b;fill-opacity:1;" d="M 322.515625 117.839844 C 328.203125 120.882812 331.175781 129.367188 331.109375 129.351562 C 331.101562 129.386719 325.332031 131.820312 320.097656 128.625 C 314.9375 125.460938 311.570312 118.097656 311.5 118.09375 C 311.5 118.128906 316.910156 114.824219 322.515625 117.839844 "/><path style=" stroke:none;fill-rule:nonzero;fill:#25323b;fill-opacity:1;" d="M 318.402344 97.996094 C 318.464844 103.640625 323.125 110.613281 323.09375 110.65625 C 323.0625 110.640625 328.816406 108.824219 329.179688 103 C 329.574219 97.121094 323.691406 89.769531 323.65625 89.824219 C 323.617188 89.800781 318.367188 92.3125 318.402344 97.996094 "/><path style=" stroke:none;fill-rule:nonzero;fill:#25323b;fill-opacity:1;" d="M 312.722656 101.242188 C 318.445312 103.476562 322.402344 111.019531 322.339844 111.015625 C 322.339844 111.050781 317.347656 113.957031 312.03125 111.546875 C 306.777344 109.148438 302.578125 102.609375 302.523438 102.609375 C 302.523438 102.644531 307.085938 99.023438 312.722656 101.242188 "/><path style=" stroke:none;fill-rule:nonzero;fill:#25323b;fill-opacity:1;" d="M 307.347656 84.539062 C 308.097656 89.753906 313.300781 95.796875 313.28125 95.828125 C 313.246094 95.824219 318.34375 93.59375 317.953125 88.179688 C 317.589844 82.71875 311.257812 76.464844 311.230469 76.515625 C 311.1875 76.5 306.613281 79.273438 307.347656 84.539062 "/><path style=" stroke:none;fill-rule:nonzero;fill:#25323b;fill-opacity:1;" d="M 302.484375 88.042969 C 308.066406 89.621094 312.683594 96.230469 312.617188 96.230469 C 312.625 96.269531 308.378906 99.433594 303.132812 97.675781 C 297.949219 95.921875 293.214844 90.183594 293.160156 90.1875 C 293.160156 90.226562 296.960938 86.472656 302.484375 88.042969 "/><path style=" stroke:none;fill-rule:nonzero;fill:#25323b;fill-opacity:1;" d="M 253.960938 318.042969 C 239.914062 317.773438 219.023438 324.359375 218.664062 324.207031 C 218.753906 324.089844 219.820312 335.503906 235.699219 337.492188 C 252.039062 339.621094 273.722656 328.445312 273.324219 328.289062 C 273.382812 328.160156 268.386719 318.421875 253.960938 318.042969 "/><path style=" stroke:none;fill-rule:nonzero;fill:#25323b;fill-opacity:1;" d="M 247.636719 307.085938 C 240.707031 317.601562 218.253906 322.984375 218.199219 322.707031 C 217.96875 322.6875 213.933594 312.597656 222.484375 303.628906 C 230.996094 294.828125 246.511719 288.351562 246.503906 288.15625 C 246.289062 288.160156 254.589844 296.882812 247.636719 307.085938 "/><path style=" stroke:none;fill-rule:nonzero;fill:#25323b;fill-opacity:1;" d="M 286.21875 299.113281 C 273.738281 301.085938 257.679688 310.417969 257.386719 310.332031 C 257.441406 310.207031 261.535156 320.328125 275.644531 319.605469 C 290.125 318.945312 306.238281 305.476562 305.898438 305.40625 C 305.9375 305.285156 299.007812 297.195312 286.21875 299.113281 "/><path style=" stroke:none;fill-rule:nonzero;fill:#25323b;fill-opacity:1;" d="M 277.808594 290.171875 C 274.359375 300.816406 256.640625 309.28125 256.5625 309.054688 C 256.386719 309.0625 250.019531 300.628906 254.929688 291.101562 C 259.835938 281.746094 272.027344 273.289062 271.984375 273.117188 C 271.828125 273.164062 281.320312 279.789062 277.808594 290.171875 "/><path style=" stroke:none;fill-rule:nonzero;fill:#25323b;fill-opacity:1;" d="M 311.5 275.445312 C 300.738281 279.246094 289.050781 290.351562 288.804688 290.320312 C 288.832031 290.203125 295.109375 298.636719 307.316406 295.695312 C 319.820312 292.75 330.96875 278.027344 330.695312 278.015625 C 330.703125 277.902344 322.515625 271.644531 311.5 275.445312 "/><path style=" stroke:none;fill-rule:nonzero;fill:#25323b;fill-opacity:1;" d="M 301.785156 268.6875 C 301.207031 278.933594 287.835938 289.492188 287.75 289.300781 C 287.605469 289.339844 279.699219 282.808594 281.578125 273.328125 C 283.480469 264.023438 292.539062 254.25 292.480469 254.101562 C 292.359375 254.152344 302.4375 258.675781 301.785156 268.6875 "/><path style=" stroke:none;fill-rule:nonzero;fill:#25323b;fill-opacity:1;" d="M 329.855469 248.191406 C 320.902344 253.414062 313.128906 265.453125 312.9375 265.453125 C 312.9375 265.351562 320.632812 271.871094 330.847656 267.191406 C 341.296875 262.464844 348.078125 247.378906 347.863281 247.40625 C 347.855469 247.300781 339 242.9375 329.855469 248.191406 "/><path style=" stroke:none;fill-rule:nonzero;fill:#25323b;fill-opacity:1;" d="M 319.511719 243.660156 C 321.242188 253.078125 311.832031 264.867188 311.730469 264.710938 C 311.632812 264.765625 302.882812 260.230469 302.292969 251.3125 C 301.75 242.523438 307.890625 232 307.816406 231.890625 C 307.726562 231.953125 317.867188 234.4375 319.511719 243.660156 "/><path style=" stroke:none;fill-rule:nonzero;fill:#25323b;fill-opacity:1;" d="M 341.328125 218.519531 C 334.242188 224.746094 329.9375 236.972656 329.785156 237.007812 C 329.761719 236.929688 338.21875 241.453125 346.390625 235.515625 C 354.757812 229.5 357.753906 214.804688 357.582031 214.851562 C 357.558594 214.765625 348.558594 212.246094 341.328125 218.519531 "/><path style=" stroke:none;fill-rule:nonzero;fill:#25323b;fill-opacity:1;" d="M 330.9375 216.128906 C 334.472656 224.40625 328.628906 236.667969 328.523438 236.550781 C 328.457031 236.605469 319.460938 234.046875 316.929688 226.035156 C 314.457031 218.128906 317.902344 207.421875 317.824219 207.328125 C 317.761719 207.398438 327.503906 208.007812 330.9375 216.128906 "/><g clip-rule="nonzero" clip-path="url(#ce0f290297)"><path style=" stroke:none;fill-rule:nonzero;fill:#25323b;fill-opacity:1;" d="M 345.628906 192.378906 C 340.203125 199.03125 338.507812 210.832031 338.402344 210.871094 C 338.367188 210.792969 346.898438 213.640625 353.269531 207.082031 C 359.773438 200.429688 360.011719 186.71875 359.882812 186.78125 C 359.84375 186.710938 351.167969 185.636719 345.628906 192.378906 "/></g><path style=" stroke:none;fill-rule:nonzero;fill:#25323b;fill-opacity:1;" d="M 335.71875 191.667969 C 340.347656 198.726562 337.261719 210.730469 337.167969 210.640625 C 337.105469 210.695312 328.421875 209.738281 324.648438 202.777344 C 320.957031 195.890625 322.3125 185.503906 322.222656 185.441406 C 322.179688 185.503906 331.195312 184.707031 335.71875 191.667969 "/><path style=" stroke:none;fill-rule:nonzero;fill:#25323b;fill-opacity:1;" d="M 294.445312 72.164062 C 295.808594 76.90625 301.417969 81.988281 301.398438 82.023438 C 301.367188 82.019531 305.773438 79.496094 304.71875 74.554688 C 303.683594 69.570312 297.046875 64.386719 297.027344 64.4375 C 296.992188 64.421875 293.089844 67.375 294.445312 72.164062 "/><path style=" stroke:none;fill-rule:nonzero;fill:#25323b;fill-opacity:1;" d="M 290.382812 75.808594 C 295.765625 76.792969 300.90625 82.449219 300.847656 82.457031 C 300.847656 82.484375 297.347656 85.796875 292.257812 84.652344 C 287.21875 83.492188 282.050781 78.59375 282.003906 78.597656 C 282.011719 78.625 285.0625 74.839844 290.382812 75.808594 "/><path style=" stroke:none;fill-rule:nonzero;fill:#25323b;fill-opacity:1;" d="M 279.699219 61.019531 C 281.589844 65.253906 287.46875 69.402344 287.457031 69.433594 C 287.425781 69.425781 291.136719 66.707031 289.503906 62.296875 C 287.878906 57.835938 281.085938 53.695312 281.070312 53.726562 C 281.039062 53.726562 277.8125 56.761719 279.699219 61.019531 "/><path style=" stroke:none;fill-rule:nonzero;fill:#25323b;fill-opacity:1;" d="M 276.433594 64.71875 C 281.546875 65.148438 287.050781 69.867188 287.003906 69.871094 C 287.011719 69.898438 284.246094 73.257812 279.378906 72.65625 C 274.554688 72.046875 269.082031 67.96875 269.039062 67.980469 C 269.042969 68 271.371094 64.28125 276.433594 64.71875 "/><path style=" stroke:none;fill-rule:nonzero;fill:#25323b;fill-opacity:1;" d="M 264.691406 52.125 C 266.972656 55.824219 272.910156 59.117188 272.902344 59.140625 C 272.878906 59.140625 275.929688 56.359375 273.863281 52.496094 C 271.8125 48.597656 265.0625 45.367188 265.054688 45.402344 C 265.03125 45.394531 262.429688 48.398438 264.691406 52.125 "/><path style=" stroke:none;fill-rule:nonzero;fill:#25323b;fill-opacity:1;" d="M 262.152344 55.742188 C 266.917969 55.742188 272.585938 59.574219 272.546875 59.585938 C 272.554688 59.597656 270.457031 62.890625 265.890625 62.730469 C 261.363281 62.558594 255.761719 59.257812 255.722656 59.257812 C 255.734375 59.28125 257.417969 55.726562 262.152344 55.742188 "/><path style=" stroke:none;fill-rule:nonzero;fill:#25323b;fill-opacity:1;" d="M 249.898438 45.226562 C 252.402344 48.414062 258.242188 50.933594 258.230469 50.957031 C 258.207031 50.957031 260.652344 48.234375 258.320312 44.914062 C 255.992188 41.550781 249.476562 39.121094 249.460938 39.15625 C 249.441406 39.15625 247.394531 42.03125 249.898438 45.226562 "/><path style=" stroke:none;fill-rule:nonzero;fill:#25323b;fill-opacity:1;" d="M 247.980469 48.660156 C 252.351562 48.335938 257.992188 51.363281 257.957031 51.378906 C 257.964844 51.390625 256.457031 54.511719 252.246094 54.691406 C 248.066406 54.863281 242.519531 52.257812 242.476562 52.265625 C 242.492188 52.273438 243.640625 48.96875 247.980469 48.660156 "/><path style=" stroke:none;fill-rule:nonzero;fill:#25323b;fill-opacity:1;" d="M 236.320312 43.585938 C 240.703125 43.65625 245.527344 46.535156 245.507812 46.535156 C 245.503906 46.558594 243.347656 48.941406 239.171875 48.789062 C 235.019531 48.625 230.09375 46.109375 230.070312 46.117188 C 230.070312 46.121094 231.96875 43.503906 236.320312 43.585938 "/><g clip-rule="nonzero" clip-path="url(#e10835b616)"><path style=" stroke:none;fill-rule:nonzero;fill:#25323b;fill-opacity:1;" d="M 237.492188 40.996094 C 240.796875 43.539062 246.394531 44.835938 246.402344 44.863281 C 246.382812 44.867188 247.175781 41.832031 243.921875 39.160156 C 240.667969 36.460938 234.523438 35.367188 234.53125 35.382812 C 234.515625 35.390625 234.195312 38.441406 237.492188 40.996094 "/></g><path style=" stroke:none;fill-rule:nonzero;fill:#25323b;fill-opacity:1;" d="M 227.945312 36.988281 C 232.796875 38.394531 235.589844 41.832031 235.570312 41.832031 C 235.554688 41.832031 230.960938 42.703125 226.308594 41.351562 C 221.664062 39.992188 218.367188 36.835938 218.347656 36.828125 C 218.332031 36.824219 223.085938 35.578125 227.945312 36.988281 "/><path style=" stroke:none;fill-rule:nonzero;fill:#25323b;fill-opacity:1;" d="M 187.496094 274.972656 L 195.351562 299.160156 L 220.789062 299.160156 L 200.214844 314.109375 L 208.074219 338.300781 L 187.496094 323.347656 L 166.925781 338.300781 L 174.792969 314.109375 L 154.210938 299.160156 L 179.644531 299.160156 L 187.496094 274.972656 "/><g clip-rule="nonzero" clip-path="url(#94563ee43a)"><path style=" stroke:none;fill-rule:nonzero;fill:#5ce1e6;fill-opacity:1;" d="M 278.371094 104.648438 L 266.351562 131.550781 C 260.003906 127.371094 252.578125 125.3125 244.46875 125.550781 C 234.175781 125.847656 223.363281 129.820312 213.199219 137.019531 L 219.886719 146.464844 C 232.1875 137.75 249.007812 132.625 261.535156 142.3125 L 247.75 173.164062 L 260.433594 178.832031 L 291.054688 110.3125 Z M 278.371094 104.648438 "/></g><path style=" stroke:none;fill-rule:nonzero;fill:#5ce1e6;fill-opacity:1;" d="M 268.089844 174.226562 L 290.554688 123.941406 L 303.238281 129.609375 L 280.773438 179.894531 Z M 268.089844 174.226562 "/><g clip-rule="nonzero" clip-path="url(#a16d6d097a)"><path style=" stroke:none;fill-rule:nonzero;fill:#5ce1e6;fill-opacity:1;" d="M 289.253906 170.074219 L 301.972656 143.636719 L 314.492188 149.65625 L 301.773438 176.097656 Z M 289.253906 170.074219 "/></g><path style=" stroke:none;fill-rule:nonzero;fill:#5ce1e6;fill-opacity:1;" d="M 71.722656 129.613281 L 84.402344 123.945312 L 106.871094 174.226562 L 94.191406 179.894531 Z M 71.722656 129.613281 "/><g clip-rule="nonzero" clip-path="url(#4061618989)"><path style=" stroke:none;fill-rule:nonzero;fill:#5ce1e6;fill-opacity:1;" d="M 60.476562 149.664062 L 72.992188 143.644531 L 85.710938 170.082031 L 73.195312 176.105469 Z M 60.476562 149.664062 "/></g><g clip-rule="nonzero" clip-path="url(#3ea8750820)"><path style=" stroke:none;fill-rule:nonzero;fill:#5ce1e6;fill-opacity:1;" d="M 108.625 131.550781 L 96.601562 104.648438 L 83.917969 110.3125 L 114.53125 178.835938 L 127.214844 173.167969 L 113.433594 142.320312 C 125.964844 132.625 142.785156 137.75 155.082031 146.46875 L 161.773438 137.027344 C 151.605469 129.824219 140.796875 125.855469 130.503906 125.554688 C 122.394531 125.3125 114.976562 127.371094 108.625 131.550781 Z M 108.625 131.550781 "/></g><g clip-rule="nonzero" clip-path="url(#208e902d57)"><path style=" stroke:none;fill-rule:nonzero;fill:#25323b;fill-opacity:1;" d="M 248.449219 143.6875 C 248.328125 143.679688 248.203125 143.679688 248.082031 143.675781 C 225.019531 143.296875 197.417969 178.910156 189.625 189.734375 C 188.253906 191.636719 187.496094 192.765625 187.484375 192.8125 C 187.410156 192.558594 153.703125 142.785156 126.519531 143.6875 C 126.410156 143.691406 126.300781 143.691406 126.1875 143.699219 C 166.636719 176.554688 187.484375 270.324219 187.484375 270.324219 C 187.484375 270.324219 208.335938 176.554688 248.785156 143.699219 C 248.675781 143.691406 248.566406 143.691406 248.449219 143.6875 Z M 248.449219 143.6875 "/></g><path style=" stroke:none;fill-rule:nonzero;fill:#25323b;fill-opacity:1;" d="M 187.484375 173.90625 C 195.234375 173.90625 201.515625 167.625 201.515625 159.875 C 201.515625 152.128906 195.234375 145.847656 187.484375 145.847656 C 179.738281 145.847656 173.457031 152.128906 173.457031 159.875 C 173.457031 167.625 179.738281 173.90625 187.484375 173.90625 Z M 187.484375 173.90625 "/></g></svg>