<svg xmlns="http://www.w3.org/2000/svg" xmlns:xlink="http://www.w3.org/1999/xlink" width="500" zoomAndPan="magnify" viewBox="0 0 375 374.999991" height="500" preserveAspectRatio="xMidYMid meet" version="1.2"><defs><clipPath id="381af62bdb"><path d="M 219 82.589844 L 319 82.589844 L 319 177 L 219 177 Z M 219 82.589844 "/></clipPath><clipPath id="dd85e75df0"><path d="M 316 131 L 348.261719 131 L 348.261719 174 L 316 174 Z M 316 131 "/></clipPath><clipPath id="d6cddf9a11"><path d="M 26.511719 131 L 59 131 L 59 174 L 26.511719 174 Z M 26.511719 131 "/></clipPath><clipPath id="ea8f3dbee8"><path d="M 56 82.589844 L 155 82.589844 L 155 177 L 56 177 Z M 56 82.589844 "/></clipPath><clipPath id="d0fd19a228"><path d="M 109 131 L 265 131 L 265 292.589844 L 109 292.589844 Z M 109 131 "/></clipPath></defs><g id="063cdf0f85"><g clip-rule="nonzero" clip-path="url(#381af62bdb)"><path style=" stroke:none;fill-rule:nonzero;fill:#0cc0df;fill-opacity:1;" d="M 302.394531 82.589844 L 287.1875 116.632812 C 279.152344 111.34375 269.753906 108.742188 259.492188 109.039062 C 246.46875 109.417969 232.789062 114.441406 219.925781 123.554688 L 228.390625 135.503906 C 243.953125 124.480469 265.238281 117.992188 281.09375 130.253906 L 263.648438 169.292969 L 279.695312 176.464844 L 318.445312 89.761719 Z M 302.394531 82.589844 "/></g><path style=" stroke:none;fill-rule:nonzero;fill:#0cc0df;fill-opacity:1;" d="M 289.386719 170.636719 L 317.816406 107.007812 L 333.863281 114.175781 L 305.4375 177.808594 Z M 289.386719 170.636719 "/><g clip-rule="nonzero" clip-path="url(#dd85e75df0)"><path style=" stroke:none;fill-rule:nonzero;fill:#0cc0df;fill-opacity:1;" d="M 316.167969 165.382812 L 332.261719 131.925781 L 348.101562 139.546875 L 332.007812 173.003906 Z M 316.167969 165.382812 "/></g><path style=" stroke:none;fill-rule:nonzero;fill:#0cc0df;fill-opacity:1;" d="M 40.894531 114.179688 L 56.941406 107.007812 L 85.375 170.636719 L 69.328125 177.808594 Z M 40.894531 114.179688 "/><g clip-rule="nonzero" clip-path="url(#d6cddf9a11)"><path style=" stroke:none;fill-rule:nonzero;fill:#0cc0df;fill-opacity:1;" d="M 26.664062 139.554688 L 42.503906 131.9375 L 58.597656 165.394531 L 42.757812 173.011719 Z M 26.664062 139.554688 "/></g><g clip-rule="nonzero" clip-path="url(#ea8f3dbee8)"><path style=" stroke:none;fill-rule:nonzero;fill:#0cc0df;fill-opacity:1;" d="M 87.59375 116.632812 L 72.378906 82.589844 L 56.328125 89.761719 L 95.070312 176.46875 L 111.121094 169.300781 L 93.679688 130.261719 C 109.535156 117.992188 130.820312 124.480469 146.382812 135.511719 L 154.847656 123.5625 C 141.984375 114.449219 128.304688 109.425781 115.28125 109.046875 C 105.019531 108.742188 95.628906 111.34375 87.59375 116.632812 Z M 87.59375 116.632812 "/></g><g clip-rule="nonzero" clip-path="url(#d0fd19a228)"><path style=" stroke:none;fill-rule:nonzero;fill:#25323b;fill-opacity:1;" d="M 264.535156 131.992188 C 264.382812 131.984375 264.222656 131.984375 264.066406 131.976562 C 234.882812 131.496094 199.953125 176.566406 190.09375 190.257812 C 188.359375 192.667969 187.402344 194.097656 187.386719 194.15625 C 187.292969 193.835938 144.636719 130.851562 110.238281 131.992188 C 110.101562 132 109.964844 132 109.816406 132.007812 C 161 173.582031 187.386719 292.242188 187.386719 292.242188 C 187.386719 292.242188 213.769531 173.582031 264.957031 132.007812 C 264.816406 132 264.679688 132 264.535156 131.992188 Z M 264.535156 131.992188 "/></g><path style=" stroke:none;fill-rule:nonzero;fill:#25323b;fill-opacity:1;" d="M 187.386719 170.230469 C 197.191406 170.230469 205.140625 162.28125 205.140625 152.476562 C 205.140625 142.675781 197.191406 134.726562 187.386719 134.726562 C 177.582031 134.726562 169.632812 142.675781 169.632812 152.476562 C 169.632812 162.28125 177.582031 170.230469 187.386719 170.230469 Z M 187.386719 170.230469 "/></g></svg>