<svg xmlns="http://www.w3.org/2000/svg" xmlns:xlink="http://www.w3.org/1999/xlink" width="500" zoomAndPan="magnify" viewBox="0 0 375 374.999991" height="500" preserveAspectRatio="xMidYMid meet" version="1.2"><defs><clipPath id="485e1f2041"><path d="M 146.867188 141.714844 L 227.867188 141.714844 L 227.867188 176.964844 L 146.867188 176.964844 Z M 146.867188 141.714844 "/></clipPath></defs><g id="d312a4e4c5"><g clip-rule="nonzero" clip-path="url(#485e1f2041)"><path style=" stroke:none;fill-rule:evenodd;fill:#0fb9e6;fill-opacity:1;" d="M 150.644531 164.074219 C 150.308594 160.914062 150.308594 157.753906 150.644531 154.59375 C 150.65625 154.480469 150.605469 154.421875 150.492188 154.421875 L 148.949219 154.421875 C 147.808594 154.421875 146.882812 156.621094 146.882812 159.332031 C 146.882812 162.042969 147.808594 164.242188 148.949219 164.242188 L 150.492188 164.242188 C 150.605469 164.242188 150.65625 164.1875 150.644531 164.074219 Z M 176.078125 165.066406 L 198.660156 165.066406 C 198.839844 165.066406 198.9375 165.15625 198.953125 165.335938 C 199.585938 172.109375 201.257812 176.949219 203.222656 176.949219 C 205.730469 176.949219 207.761719 169.0625 207.761719 159.332031 C 207.761719 158.453125 207.746094 157.59375 207.710938 156.75 C 207.710938 156.703125 207.734375 156.675781 207.777344 156.667969 C 207.824219 156.660156 207.855469 156.679688 207.867188 156.722656 C 209.632812 162.769531 208.273438 173.902344 206.949219 176.792969 C 206.933594 176.828125 206.933594 176.863281 206.957031 176.898438 C 206.980469 176.929688 207.011719 176.949219 207.050781 176.949219 L 211.683594 176.949219 C 214.394531 176.949219 216.605469 169.417969 216.703125 160 C 216.703125 159.953125 216.726562 159.925781 216.773438 159.921875 C 216.820312 159.914062 216.851562 159.9375 216.859375 159.980469 C 217.867188 164.65625 217.234375 170.820312 216.476562 173.546875 C 216.453125 173.640625 216.488281 173.683594 216.582031 173.6875 L 218.773438 173.6875 C 221.28125 173.6875 223.3125 167.257812 223.3125 159.332031 C 223.3125 151.40625 221.28125 144.980469 218.773438 144.980469 L 214.59375 144.980469 C 213.773438 142.929688 212.769531 141.71875 211.683594 141.71875 L 203.222656 141.71875 C 201.257812 141.71875 199.582031 146.558594 198.949219 153.332031 C 198.933594 153.511719 198.835938 153.597656 198.65625 153.597656 L 176.078125 153.597656 C 175.898438 153.597656 175.800781 153.511719 175.785156 153.332031 C 175.15625 146.558594 173.480469 141.71875 171.515625 141.71875 L 163.054688 141.71875 C 161.984375 141.71875 160.996094 142.890625 160.183594 144.882812 C 160.15625 144.945312 160.109375 144.976562 160.039062 144.980469 L 155.964844 144.980469 C 153.457031 144.980469 151.425781 151.402344 151.425781 159.332031 C 151.425781 167.257812 153.457031 173.683594 155.964844 173.683594 L 158.152344 173.683594 C 158.25 173.683594 158.285156 173.636719 158.261719 173.542969 C 157.503906 170.820312 156.871094 164.65625 157.878906 159.980469 C 157.886719 159.933594 157.914062 159.914062 157.964844 159.917969 C 158.011719 159.925781 158.035156 159.949219 158.035156 160 C 158.132812 169.417969 160.34375 176.945312 163.054688 176.945312 L 167.6875 176.945312 C 167.730469 176.945312 167.757812 176.929688 167.78125 176.894531 C 167.804688 176.863281 167.804688 176.828125 167.789062 176.789062 C 166.460938 173.898438 165.105469 162.769531 166.871094 156.722656 C 166.882812 156.675781 166.914062 156.660156 166.960938 156.667969 C 167.007812 156.671875 167.027344 156.699219 167.027344 156.746094 C 166.992188 157.589844 166.976562 158.453125 166.976562 159.332031 C 166.976562 169.0625 169.007812 176.949219 171.515625 176.949219 C 173.484375 176.949219 175.152344 172.105469 175.785156 165.335938 C 175.800781 165.15625 175.898438 165.066406 176.078125 165.066406 Z M 157.546875 154.421875 L 153.011719 154.421875 C 152.921875 154.421875 152.882812 154.375 152.894531 154.289062 C 153.074219 152.675781 153.402344 151.089844 153.871094 149.535156 C 154.078125 148.859375 154.339844 148.207031 154.664062 147.578125 C 154.683594 147.535156 154.71875 147.511719 154.765625 147.511719 L 159.164062 147.511719 C 159.203125 147.511719 159.238281 147.53125 159.261719 147.5625 C 159.285156 147.59375 159.289062 147.628906 159.277344 147.667969 C 158.539062 149.835938 158.003906 152.054688 157.667969 154.320312 C 157.65625 154.386719 157.617188 154.421875 157.546875 154.421875 Z M 165.707031 151.148438 L 159.59375 151.148438 C 159.503906 151.148438 159.460938 151.105469 159.476562 151.015625 C 159.683594 149.523438 160.800781 145.953125 161.734375 144.3125 C 161.753906 144.273438 161.789062 144.253906 161.835938 144.253906 L 167.878906 144.253906 C 167.921875 144.253906 167.957031 144.269531 167.980469 144.308594 C 168.003906 144.347656 168.003906 144.386719 167.984375 144.425781 C 167.144531 146.019531 166.230469 148.605469 165.820312 151.050781 C 165.8125 151.113281 165.773438 151.148438 165.707031 151.148438 Z M 215.574219 147.515625 L 219.972656 147.515625 C 220.019531 147.515625 220.054688 147.535156 220.078125 147.578125 C 220.398438 148.207031 220.660156 148.859375 220.867188 149.535156 C 221.335938 151.089844 221.660156 152.675781 221.84375 154.289062 C 221.855469 154.378906 221.816406 154.421875 221.726562 154.421875 L 217.1875 154.421875 C 217.121094 154.421875 217.082031 154.390625 217.070312 154.320312 C 216.734375 152.054688 216.199219 149.839844 215.460938 147.671875 C 215.449219 147.632812 215.453125 147.597656 215.476562 147.566406 C 215.5 147.53125 215.53125 147.515625 215.574219 147.515625 Z M 206.753906 144.425781 C 206.734375 144.386719 206.734375 144.347656 206.757812 144.308594 C 206.78125 144.269531 206.816406 144.253906 206.859375 144.253906 L 212.902344 144.253906 C 212.949219 144.253906 212.980469 144.273438 213.003906 144.3125 C 213.9375 145.953125 215.054688 149.523438 215.261719 151.015625 C 215.273438 151.105469 215.234375 151.148438 215.144531 151.148438 L 209.03125 151.148438 C 208.964844 151.148438 208.925781 151.117188 208.917969 151.050781 C 208.507812 148.605469 207.59375 146.019531 206.753906 144.425781 Z M 171.425781 159.332031 C 171.324219 159.332031 171.273438 159.28125 171.273438 159.175781 C 171.292969 157.414062 171.605469 156.1875 171.851562 155.679688 C 171.878906 155.621094 171.925781 155.59375 171.992188 155.589844 L 202.746094 155.589844 C 202.8125 155.589844 202.859375 155.621094 202.886719 155.679688 C 203.132812 156.1875 203.445312 157.414062 203.464844 159.175781 C 203.464844 159.28125 203.414062 159.332031 203.3125 159.332031 Z M 224.09375 154.59375 C 224.429688 157.753906 224.429688 160.914062 224.09375 164.074219 C 224.082031 164.1875 224.132812 164.242188 224.246094 164.242188 L 225.789062 164.242188 C 226.929688 164.242188 227.855469 162.042969 227.855469 159.332031 C 227.855469 156.621094 226.929688 154.421875 225.789062 154.421875 L 224.246094 154.421875 C 224.132812 154.421875 224.082031 154.480469 224.09375 154.59375 Z M 224.09375 154.59375 "/></g><g style="fill:#061624;fill-opacity:1;"><g transform="translate(85.908186, 212.118034)"><path style="stroke:none" d="M 6.203125 -25.578125 L 9.78125 -25.578125 C 11.289062 -25.578125 12.4375 -25.1875 13.21875 -24.40625 C 14 -23.625 14.390625 -22.476562 14.390625 -20.96875 L 14.390625 -17.578125 C 14.390625 -17.242188 14.21875 -17.078125 13.875 -17.078125 L 10.546875 -17.078125 C 10.203125 -17.078125 10.03125 -17.242188 10.03125 -17.578125 L 10.03125 -20.078125 C 10.03125 -20.929688 9.609375 -21.359375 8.765625 -21.359375 L 7.21875 -21.359375 C 6.375 -21.359375 5.953125 -20.929688 5.953125 -20.078125 L 5.953125 -15.671875 L 13.5625 -13.171875 C 14.113281 -12.929688 14.390625 -12.535156 14.390625 -11.984375 L 14.390625 -4.609375 C 14.390625 -3.109375 14 -1.960938 13.21875 -1.171875 C 12.4375 -0.390625 11.289062 0 9.78125 0 L 6.203125 0 C 4.710938 0 3.570312 -0.390625 2.78125 -1.171875 C 1.988281 -1.960938 1.59375 -3.109375 1.59375 -4.609375 L 1.59375 -7.953125 C 1.59375 -8.296875 1.765625 -8.46875 2.109375 -8.46875 L 5.4375 -8.46875 C 5.78125 -8.46875 5.953125 -8.296875 5.953125 -7.953125 L 5.953125 -5.5 C 5.953125 -4.644531 6.375 -4.21875 7.21875 -4.21875 L 8.765625 -4.21875 C 9.609375 -4.21875 10.03125 -4.644531 10.03125 -5.5 L 10.03125 -9.75 L 2.46875 -12.25 C 1.882812 -12.4375 1.59375 -12.828125 1.59375 -13.421875 L 1.59375 -20.96875 C 1.59375 -22.476562 1.988281 -23.625 2.78125 -24.40625 C 3.570312 -25.1875 4.710938 -25.578125 6.203125 -25.578125 Z M 6.203125 -25.578125 "/></g></g><g style="fill:#061624;fill-opacity:1;"><g transform="translate(104.610348, 212.118034)"><path style="stroke:none" d="M 1.46875 -25.578125 L 13.234375 -25.578125 C 13.578125 -25.578125 13.75 -25.40625 13.75 -25.0625 L 13.75 -21.859375 C 13.75 -21.523438 13.578125 -21.359375 13.234375 -21.359375 L 9.53125 -21.359375 L 9.53125 -0.515625 C 9.53125 -0.171875 9.359375 0 9.015625 0 L 5.6875 0 C 5.34375 0 5.171875 -0.171875 5.171875 -0.515625 L 5.171875 -21.359375 L 1.46875 -21.359375 C 1.125 -21.359375 0.953125 -21.523438 0.953125 -21.859375 L 0.953125 -25.0625 C 0.953125 -25.40625 1.125 -25.578125 1.46875 -25.578125 Z M 1.46875 -25.578125 "/></g></g><g style="fill:#061624;fill-opacity:1;"><g transform="translate(122.033771, 212.118034)"><path style="stroke:none" d="M 14.734375 -20.96875 L 14.734375 -13.171875 C 14.734375 -11.035156 13.957031 -9.628906 12.40625 -8.953125 L 14.609375 -0.578125 C 14.710938 -0.191406 14.5625 0 14.15625 0 L 10.84375 0 C 10.539062 0 10.359375 -0.148438 10.296875 -0.453125 L 8.15625 -8.5625 L 5.953125 -8.5625 L 5.953125 -0.515625 C 5.953125 -0.171875 5.78125 0 5.4375 0 L 2.109375 0 C 1.765625 0 1.59375 -0.171875 1.59375 -0.515625 L 1.59375 -25.0625 C 1.59375 -25.40625 1.765625 -25.578125 2.109375 -25.578125 L 10.140625 -25.578125 C 11.648438 -25.578125 12.789062 -25.1875 13.5625 -24.40625 C 14.34375 -23.625 14.734375 -22.476562 14.734375 -20.96875 Z M 5.953125 -12.78125 L 9.109375 -12.78125 C 9.960938 -12.78125 10.390625 -13.207031 10.390625 -14.0625 L 10.390625 -20.078125 C 10.390625 -20.929688 9.960938 -21.359375 9.109375 -21.359375 L 5.953125 -21.359375 Z M 5.953125 -12.78125 "/></g></g><g style="fill:#061624;fill-opacity:1;"><g transform="translate(141.087599, 212.118034)"><path style="stroke:none" d="M 1.59375 -4.609375 L 1.59375 -20.96875 C 1.59375 -22.476562 1.988281 -23.625 2.78125 -24.40625 C 3.570312 -25.1875 4.710938 -25.578125 6.203125 -25.578125 L 9.78125 -25.578125 C 11.289062 -25.578125 12.4375 -25.1875 13.21875 -24.40625 C 14 -23.625 14.390625 -22.476562 14.390625 -20.96875 L 14.390625 -4.609375 C 14.390625 -3.109375 14 -1.960938 13.21875 -1.171875 C 12.4375 -0.390625 11.289062 0 9.78125 0 L 6.203125 0 C 4.710938 0 3.570312 -0.390625 2.78125 -1.171875 C 1.988281 -1.960938 1.59375 -3.109375 1.59375 -4.609375 Z M 7.125 -4.125 L 8.984375 -4.125 C 9.835938 -4.125 10.265625 -4.550781 10.265625 -5.40625 L 10.265625 -20.171875 C 10.265625 -21.023438 9.835938 -21.453125 8.984375 -21.453125 L 7.125 -21.453125 C 6.269531 -21.453125 5.84375 -21.023438 5.84375 -20.171875 L 5.84375 -5.40625 C 5.84375 -4.550781 6.269531 -4.125 7.125 -4.125 Z M 7.125 -4.125 "/></g></g><g style="fill:#061624;fill-opacity:1;"><g transform="translate(159.789762, 212.118034)"><path style="stroke:none" d="M 11.40625 -25.578125 L 14.734375 -25.578125 C 15.078125 -25.578125 15.25 -25.40625 15.25 -25.0625 L 15.25 -0.515625 C 15.25 -0.171875 15.078125 0 14.734375 0 L 11.578125 0 C 11.273438 0 11.082031 -0.140625 11 -0.421875 L 6.109375 -14.0625 L 5.953125 -14.0625 L 5.953125 -0.515625 C 5.953125 -0.171875 5.78125 0 5.4375 0 L 2.109375 0 C 1.765625 0 1.59375 -0.171875 1.59375 -0.515625 L 1.59375 -25.0625 C 1.59375 -25.40625 1.765625 -25.578125 2.109375 -25.578125 L 5.28125 -25.578125 C 5.570312 -25.578125 5.757812 -25.4375 5.84375 -25.15625 L 10.703125 -11.578125 L 10.90625 -11.578125 L 10.90625 -25.0625 C 10.90625 -25.40625 11.070312 -25.578125 11.40625 -25.578125 Z M 11.40625 -25.578125 "/></g></g><g style="fill:#061624;fill-opacity:1;"><g transform="translate(179.355083, 212.118034)"><path style="stroke:none" d="M 1.59375 -4.609375 L 1.59375 -20.96875 C 1.59375 -22.476562 1.988281 -23.625 2.78125 -24.40625 C 3.570312 -25.1875 4.710938 -25.578125 6.203125 -25.578125 L 10.421875 -25.578125 C 11.910156 -25.578125 13.050781 -25.1875 13.84375 -24.40625 C 14.632812 -23.625 15.03125 -22.476562 15.03125 -20.96875 L 15.03125 -17.640625 C 15.03125 -17.304688 14.859375 -17.140625 14.515625 -17.140625 L 11.3125 -17.140625 C 10.976562 -17.140625 10.8125 -17.304688 10.8125 -17.640625 L 10.8125 -20.078125 C 10.8125 -20.929688 10.382812 -21.359375 9.53125 -21.359375 L 7.21875 -21.359375 C 6.375 -21.359375 5.953125 -20.929688 5.953125 -20.078125 L 5.953125 -5.5 C 5.953125 -4.644531 6.375 -4.21875 7.21875 -4.21875 L 9.53125 -4.21875 C 10.382812 -4.21875 10.8125 -4.644531 10.8125 -5.5 L 10.8125 -9.78125 L 9.140625 -9.78125 C 8.796875 -9.78125 8.625 -9.953125 8.625 -10.296875 L 8.625 -13.484375 C 8.625 -13.828125 8.796875 -14 9.140625 -14 L 14.515625 -14 C 14.859375 -14 15.03125 -13.828125 15.03125 -13.484375 L 15.03125 -4.609375 C 15.03125 -3.109375 14.632812 -1.960938 13.84375 -1.171875 C 13.050781 -0.390625 11.910156 0 10.421875 0 L 6.203125 0 C 4.710938 0 3.570312 -0.390625 2.78125 -1.171875 C 1.988281 -1.960938 1.59375 -3.109375 1.59375 -4.609375 Z M 1.59375 -4.609375 "/></g></g><g style="fill:#061624;fill-opacity:1;"><g transform="translate(198.696627, 212.118034)"><path style="stroke:none" d="M 1.46875 -25.578125 L 13.234375 -25.578125 C 13.578125 -25.578125 13.75 -25.40625 13.75 -25.0625 L 13.75 -21.859375 C 13.75 -21.523438 13.578125 -21.359375 13.234375 -21.359375 L 9.53125 -21.359375 L 9.53125 -0.515625 C 9.53125 -0.171875 9.359375 0 9.015625 0 L 5.6875 0 C 5.34375 0 5.171875 -0.171875 5.171875 -0.515625 L 5.171875 -21.359375 L 1.46875 -21.359375 C 1.125 -21.359375 0.953125 -21.523438 0.953125 -21.859375 L 0.953125 -25.0625 C 0.953125 -25.40625 1.125 -25.578125 1.46875 -25.578125 Z M 1.46875 -25.578125 "/></g></g><g style="fill:#061624;fill-opacity:1;"><g transform="translate(216.12005, 212.118034)"><path style="stroke:none" d="M 1.59375 -4.609375 L 1.59375 -20.96875 C 1.59375 -22.476562 1.988281 -23.625 2.78125 -24.40625 C 3.570312 -25.1875 4.710938 -25.578125 6.203125 -25.578125 L 9.78125 -25.578125 C 11.289062 -25.578125 12.4375 -25.1875 13.21875 -24.40625 C 14 -23.625 14.390625 -22.476562 14.390625 -20.96875 L 14.390625 -4.609375 C 14.390625 -3.109375 14 -1.960938 13.21875 -1.171875 C 12.4375 -0.390625 11.289062 0 9.78125 0 L 6.203125 0 C 4.710938 0 3.570312 -0.390625 2.78125 -1.171875 C 1.988281 -1.960938 1.59375 -3.109375 1.59375 -4.609375 Z M 7.125 -4.125 L 8.984375 -4.125 C 9.835938 -4.125 10.265625 -4.550781 10.265625 -5.40625 L 10.265625 -20.171875 C 10.265625 -21.023438 9.835938 -21.453125 8.984375 -21.453125 L 7.125 -21.453125 C 6.269531 -21.453125 5.84375 -21.023438 5.84375 -20.171875 L 5.84375 -5.40625 C 5.84375 -4.550781 6.269531 -4.125 7.125 -4.125 Z M 7.125 -4.125 "/></g></g><g style="fill:#061624;fill-opacity:1;"><g transform="translate(234.822212, 212.118034)"><path style="stroke:none" d="M 1.59375 -4.609375 L 1.59375 -20.96875 C 1.59375 -22.476562 1.988281 -23.625 2.78125 -24.40625 C 3.570312 -25.1875 4.710938 -25.578125 6.203125 -25.578125 L 9.78125 -25.578125 C 11.289062 -25.578125 12.4375 -25.1875 13.21875 -24.40625 C 14 -23.625 14.390625 -22.476562 14.390625 -20.96875 L 14.390625 -4.609375 C 14.390625 -3.109375 14 -1.960938 13.21875 -1.171875 C 12.4375 -0.390625 11.289062 0 9.78125 0 L 6.203125 0 C 4.710938 0 3.570312 -0.390625 2.78125 -1.171875 C 1.988281 -1.960938 1.59375 -3.109375 1.59375 -4.609375 Z M 7.125 -4.125 L 8.984375 -4.125 C 9.835938 -4.125 10.265625 -4.550781 10.265625 -5.40625 L 10.265625 -20.171875 C 10.265625 -21.023438 9.835938 -21.453125 8.984375 -21.453125 L 7.125 -21.453125 C 6.269531 -21.453125 5.84375 -21.023438 5.84375 -20.171875 L 5.84375 -5.40625 C 5.84375 -4.550781 6.269531 -4.125 7.125 -4.125 Z M 7.125 -4.125 "/></g></g><g style="fill:#061624;fill-opacity:1;"><g transform="translate(253.524374, 212.118034)"><path style="stroke:none" d="M 11.40625 -25.578125 L 14.734375 -25.578125 C 15.078125 -25.578125 15.25 -25.40625 15.25 -25.0625 L 15.25 -0.515625 C 15.25 -0.171875 15.078125 0 14.734375 0 L 11.578125 0 C 11.273438 0 11.082031 -0.140625 11 -0.421875 L 6.109375 -14.0625 L 5.953125 -14.0625 L 5.953125 -0.515625 C 5.953125 -0.171875 5.78125 0 5.4375 0 L 2.109375 0 C 1.765625 0 1.59375 -0.171875 1.59375 -0.515625 L 1.59375 -25.0625 C 1.59375 -25.40625 1.765625 -25.578125 2.109375 -25.578125 L 5.28125 -25.578125 C 5.570312 -25.578125 5.757812 -25.4375 5.84375 -25.15625 L 10.703125 -11.578125 L 10.90625 -11.578125 L 10.90625 -25.0625 C 10.90625 -25.40625 11.070312 -25.578125 11.40625 -25.578125 Z M 11.40625 -25.578125 "/></g></g><g style="fill:#061624;fill-opacity:1;"><g transform="translate(273.089696, 212.118034)"><path style="stroke:none" d="M 6.203125 -25.578125 L 9.78125 -25.578125 C 11.289062 -25.578125 12.4375 -25.1875 13.21875 -24.40625 C 14 -23.625 14.390625 -22.476562 14.390625 -20.96875 L 14.390625 -17.578125 C 14.390625 -17.242188 14.21875 -17.078125 13.875 -17.078125 L 10.546875 -17.078125 C 10.203125 -17.078125 10.03125 -17.242188 10.03125 -17.578125 L 10.03125 -20.078125 C 10.03125 -20.929688 9.609375 -21.359375 8.765625 -21.359375 L 7.21875 -21.359375 C 6.375 -21.359375 5.953125 -20.929688 5.953125 -20.078125 L 5.953125 -15.671875 L 13.5625 -13.171875 C 14.113281 -12.929688 14.390625 -12.535156 14.390625 -11.984375 L 14.390625 -4.609375 C 14.390625 -3.109375 14 -1.960938 13.21875 -1.171875 C 12.4375 -0.390625 11.289062 0 9.78125 0 L 6.203125 0 C 4.710938 0 3.570312 -0.390625 2.78125 -1.171875 C 1.988281 -1.960938 1.59375 -3.109375 1.59375 -4.609375 L 1.59375 -7.953125 C 1.59375 -8.296875 1.765625 -8.46875 2.109375 -8.46875 L 5.4375 -8.46875 C 5.78125 -8.46875 5.953125 -8.296875 5.953125 -7.953125 L 5.953125 -5.5 C 5.953125 -4.644531 6.375 -4.21875 7.21875 -4.21875 L 8.765625 -4.21875 C 9.609375 -4.21875 10.03125 -4.644531 10.03125 -5.5 L 10.03125 -9.75 L 2.46875 -12.25 C 1.882812 -12.4375 1.59375 -12.828125 1.59375 -13.421875 L 1.59375 -20.96875 C 1.59375 -22.476562 1.988281 -23.625 2.78125 -24.40625 C 3.570312 -25.1875 4.710938 -25.578125 6.203125 -25.578125 Z M 6.203125 -25.578125 "/></g></g><g style="fill:#061624;fill-opacity:1;"><g transform="translate(127.553316, 231.828558)"><path style="stroke:none" d="M 0.6875 -2.484375 C 0.6875 -2.078125 0.890625 -1.859375 1.296875 -1.828125 C 1.335938 -1.816406 1.382812 -1.8125 1.4375 -1.8125 L 1.609375 -1.8125 C 2.078125 -1.8125 2.328125 -2 2.359375 -2.375 C 2.359375 -2.40625 2.359375 -2.441406 2.359375 -2.484375 L 2.359375 -3.28125 C 2.359375 -3.6875 2.164062 -3.90625 1.78125 -3.9375 C 1.71875 -3.945312 1.660156 -3.953125 1.609375 -3.953125 L 1.4375 -3.953125 C 0.976562 -3.953125 0.726562 -3.769531 0.6875 -3.40625 C 0.6875 -3.363281 0.6875 -3.320312 0.6875 -3.28125 Z M 0.6875 -2.484375 "/></g></g><g style="fill:#061624;fill-opacity:1;"><g transform="translate(133.206503, 231.828558)"><path style="stroke:none" d=""/></g></g><g style="fill:#061624;fill-opacity:1;"><g transform="translate(137.877958, 231.828558)"><path style="stroke:none" d="M 4.21875 -3.75 L 1.90625 -3.75 L 1.90625 -5.5 L 4.421875 -5.5 L 4.421875 -6.5625 L 0.703125 -6.5625 L 0.703125 0 L 1.90625 0 L 1.90625 -2.71875 L 4.21875 -2.71875 Z M 4.21875 -3.75 "/></g></g><g style="fill:#061624;fill-opacity:1;"><g transform="translate(145.019242, 231.828558)"><path style="stroke:none" d="M 2.03125 0 L 2.03125 -6.5625 L 0.828125 -6.5625 L 0.828125 0 Z M 2.03125 0 "/></g></g><g style="fill:#061624;fill-opacity:1;"><g transform="translate(150.476082, 231.828558)"><path style="stroke:none" d="M 2.8125 0 L 2.8125 -5.5 L 4.375 -5.5 L 4.375 -6.5625 L 0.046875 -6.5625 L 0.046875 -5.5 L 1.609375 -5.5 L 1.609375 0 Z M 2.8125 0 "/></g></g><g style="fill:#061624;fill-opacity:1;"><g transform="translate(157.514027, 231.828558)"><path style="stroke:none" d="M 4.578125 0 L 5.4375 0 L 5.4375 -6.5625 L 4.375 -6.5625 L 4.375 -2.15625 L 1.484375 -6.5625 L 0.625 -6.5625 L 0.625 0 L 1.671875 0 L 1.671875 -4.40625 Z M 4.578125 0 "/></g></g><g style="fill:#061624;fill-opacity:1;"><g transform="translate(166.184745, 231.828558)"><path style="stroke:none" d="M 4.5625 0 L 4.5625 -1.046875 L 1.90625 -1.046875 L 1.90625 -2.8125 L 4.3125 -2.8125 L 4.3125 -3.859375 L 1.90625 -3.859375 L 1.90625 -5.5 L 4.515625 -5.5 L 4.515625 -6.5625 L 0.703125 -6.5625 L 0.703125 0 Z M 4.5625 0 "/></g></g><g style="fill:#061624;fill-opacity:1;"><g transform="translate(173.677386, 231.828558)"><path style="stroke:none" d="M 1.71875 -3.84375 C 1.632812 -3.851562 1.59375 -3.898438 1.59375 -3.984375 L 1.59375 -5.359375 C 1.601562 -5.453125 1.644531 -5.5 1.71875 -5.5 L 4.453125 -5.5 L 4.453125 -6.5625 L 2.046875 -6.59375 C 1.203125 -6.613281 0.664062 -6.3125 0.4375 -5.6875 C 0.375 -5.5 0.34375 -5.296875 0.34375 -5.078125 L 0.34375 -4.25 C 0.34375 -3.3125 0.84375 -2.816406 1.84375 -2.765625 C 1.90625 -2.753906 1.96875 -2.75 2.03125 -2.75 L 3.296875 -2.75 C 3.378906 -2.738281 3.421875 -2.691406 3.421875 -2.609375 L 3.421875 -1.203125 C 3.410156 -1.109375 3.367188 -1.054688 3.296875 -1.046875 L 0.484375 -1.046875 L 0.484375 0 L 2.984375 0.046875 C 3.910156 0.0664062 4.457031 -0.285156 4.625 -1.015625 C 4.65625 -1.160156 4.671875 -1.3125 4.671875 -1.46875 L 4.671875 -2.328125 C 4.671875 -3.117188 4.296875 -3.601562 3.546875 -3.78125 C 3.367188 -3.820312 3.175781 -3.84375 2.96875 -3.84375 Z M 1.71875 -3.84375 "/></g></g><g style="fill:#061624;fill-opacity:1;"><g transform="translate(181.273367, 231.828558)"><path style="stroke:none" d="M 1.71875 -3.84375 C 1.632812 -3.851562 1.59375 -3.898438 1.59375 -3.984375 L 1.59375 -5.359375 C 1.601562 -5.453125 1.644531 -5.5 1.71875 -5.5 L 4.453125 -5.5 L 4.453125 -6.5625 L 2.046875 -6.59375 C 1.203125 -6.613281 0.664062 -6.3125 0.4375 -5.6875 C 0.375 -5.5 0.34375 -5.296875 0.34375 -5.078125 L 0.34375 -4.25 C 0.34375 -3.3125 0.84375 -2.816406 1.84375 -2.765625 C 1.90625 -2.753906 1.96875 -2.75 2.03125 -2.75 L 3.296875 -2.75 C 3.378906 -2.738281 3.421875 -2.691406 3.421875 -2.609375 L 3.421875 -1.203125 C 3.410156 -1.109375 3.367188 -1.054688 3.296875 -1.046875 L 0.484375 -1.046875 L 0.484375 0 L 2.984375 0.046875 C 3.910156 0.0664062 4.457031 -0.285156 4.625 -1.015625 C 4.65625 -1.160156 4.671875 -1.3125 4.671875 -1.46875 L 4.671875 -2.328125 C 4.671875 -3.117188 4.296875 -3.601562 3.546875 -3.78125 C 3.367188 -3.820312 3.175781 -3.84375 2.96875 -3.84375 Z M 1.71875 -3.84375 "/></g></g><g style="fill:#061624;fill-opacity:1;"><g transform="translate(188.869349, 231.828558)"><path style="stroke:none" d=""/></g></g><g style="fill:#061624;fill-opacity:1;"><g transform="translate(193.540804, 231.828558)"><path style="stroke:none" d="M 4.375 -1.09375 L 1.9375 -1.09375 C 1.863281 -1.101562 1.820312 -1.144531 1.8125 -1.21875 L 1.8125 -5.34375 C 1.832031 -5.414062 1.875 -5.457031 1.9375 -5.46875 L 4.375 -5.46875 L 4.375 -6.5625 L 2.203125 -6.5625 C 1.191406 -6.5625 0.65625 -6.144531 0.59375 -5.3125 C 0.59375 -5.25 0.59375 -5.1875 0.59375 -5.125 L 0.59375 -1.4375 C 0.601562 -0.488281 1.140625 -0.0078125 2.203125 0 L 4.375 0 Z M 4.375 -1.09375 "/></g></g><g style="fill:#061624;fill-opacity:1;"><g transform="translate(200.692422, 231.828558)"><path style="stroke:none" d="M 4.5625 0 L 4.5625 -1.046875 L 1.90625 -1.046875 L 1.90625 -2.8125 L 4.3125 -2.8125 L 4.3125 -3.859375 L 1.90625 -3.859375 L 1.90625 -5.5 L 4.515625 -5.5 L 4.515625 -6.5625 L 0.703125 -6.5625 L 0.703125 0 Z M 4.5625 0 "/></g></g><g style="fill:#061624;fill-opacity:1;"><g transform="translate(208.185063, 231.828558)"><path style="stroke:none" d="M 4.578125 0 L 5.4375 0 L 5.4375 -6.5625 L 4.375 -6.5625 L 4.375 -2.15625 L 1.484375 -6.5625 L 0.625 -6.5625 L 0.625 0 L 1.671875 0 L 1.671875 -4.40625 Z M 4.578125 0 "/></g></g><g style="fill:#061624;fill-opacity:1;"><g transform="translate(216.855782, 231.828558)"><path style="stroke:none" d="M 2.8125 0 L 2.8125 -5.5 L 4.375 -5.5 L 4.375 -6.5625 L 0.046875 -6.5625 L 0.046875 -5.5 L 1.609375 -5.5 L 1.609375 0 Z M 2.8125 0 "/></g></g><g style="fill:#061624;fill-opacity:1;"><g transform="translate(223.893726, 231.828558)"><path style="stroke:none" d="M 4.5625 0 L 4.5625 -1.046875 L 1.90625 -1.046875 L 1.90625 -2.8125 L 4.3125 -2.8125 L 4.3125 -3.859375 L 1.90625 -3.859375 L 1.90625 -5.5 L 4.515625 -5.5 L 4.515625 -6.5625 L 0.703125 -6.5625 L 0.703125 0 Z M 4.5625 0 "/></g></g><g style="fill:#061624;fill-opacity:1;"><g transform="translate(231.386367, 231.828558)"><path style="stroke:none" d="M 1.953125 0 L 1.953125 -2.5 L 3.25 -2.5 C 3.332031 -2.5 3.390625 -2.460938 3.421875 -2.390625 C 3.421875 -2.367188 3.421875 -2.359375 3.421875 -2.359375 L 4.21875 0 L 5.4375 0 L 4.734375 -1.96875 C 4.617188 -2.289062 4.46875 -2.515625 4.28125 -2.640625 C 4.882812 -2.890625 5.191406 -3.359375 5.203125 -4.046875 L 5.203125 -5.09375 C 5.203125 -5.957031 4.796875 -6.445312 3.984375 -6.5625 C 3.835938 -6.582031 3.679688 -6.59375 3.515625 -6.59375 L 0.75 -6.5625 L 0.75 0 Z M 3.8125 -5.546875 C 3.90625 -5.535156 3.953125 -5.488281 3.953125 -5.40625 L 3.953125 -3.671875 C 3.941406 -3.585938 3.894531 -3.546875 3.8125 -3.546875 L 1.953125 -3.546875 L 1.953125 -5.546875 Z M 3.8125 -5.546875 "/></g></g><g style="fill:#061624;fill-opacity:1;"><g transform="translate(239.705729, 231.828558)"><path style="stroke:none" d=""/></g></g><g style="fill:#061624;fill-opacity:1;"><g transform="translate(244.377184, 231.828558)"><path style="stroke:none" d="M 0.6875 -2.484375 C 0.6875 -2.078125 0.890625 -1.859375 1.296875 -1.828125 C 1.335938 -1.816406 1.382812 -1.8125 1.4375 -1.8125 L 1.609375 -1.8125 C 2.078125 -1.8125 2.328125 -2 2.359375 -2.375 C 2.359375 -2.40625 2.359375 -2.441406 2.359375 -2.484375 L 2.359375 -3.28125 C 2.359375 -3.6875 2.164062 -3.90625 1.78125 -3.9375 C 1.71875 -3.945312 1.660156 -3.953125 1.609375 -3.953125 L 1.4375 -3.953125 C 0.976562 -3.953125 0.726562 -3.769531 0.6875 -3.40625 C 0.6875 -3.363281 0.6875 -3.320312 0.6875 -3.28125 Z M 0.6875 -2.484375 "/></g></g><g style="fill:#061624;fill-opacity:1;"><g transform="translate(103.699847, 170.295985)"><path style="stroke:none" d="M 1.5625 -3.484375 C 1.488281 -3.492188 1.445312 -3.535156 1.4375 -3.609375 L 1.4375 -4.859375 C 1.445312 -4.929688 1.488281 -4.972656 1.5625 -4.984375 L 4.03125 -4.984375 L 4.03125 -5.9375 L 1.859375 -5.984375 C 1.085938 -5.992188 0.601562 -5.71875 0.40625 -5.15625 C 0.34375 -4.988281 0.3125 -4.804688 0.3125 -4.609375 L 0.3125 -3.859375 C 0.3125 -3.003906 0.765625 -2.550781 1.671875 -2.5 C 1.734375 -2.488281 1.789062 -2.484375 1.84375 -2.484375 L 2.984375 -2.484375 C 3.054688 -2.472656 3.097656 -2.429688 3.109375 -2.359375 L 3.109375 -1.078125 C 3.097656 -1.003906 3.054688 -0.960938 2.984375 -0.953125 L 0.4375 -0.953125 L 0.4375 0 L 2.703125 0.03125 C 3.546875 0.0625 4.039062 -0.253906 4.1875 -0.921875 C 4.21875 -1.046875 4.234375 -1.179688 4.234375 -1.328125 L 4.234375 -2.109375 C 4.234375 -2.828125 3.894531 -3.265625 3.21875 -3.421875 C 3.050781 -3.460938 2.875 -3.484375 2.6875 -3.484375 Z M 1.5625 -3.484375 "/></g></g><g style="fill:#061624;fill-opacity:1;"><g transform="translate(110.574472, 170.295985)"><path style="stroke:none" d="M 1.84375 0 L 1.84375 -5.9375 L 0.75 -5.9375 L 0.75 0 Z M 1.84375 0 "/></g></g><g style="fill:#061624;fill-opacity:1;"><g transform="translate(115.513685, 170.295985)"><path style="stroke:none" d="M 4.140625 0 L 4.921875 0 L 4.921875 -5.9375 L 3.96875 -5.9375 L 3.96875 -1.953125 L 1.34375 -5.9375 L 0.578125 -5.9375 L 0.578125 0 L 1.515625 0 L 1.515625 -4 Z M 4.140625 0 "/></g></g><g style="fill:#061624;fill-opacity:1;"><g transform="translate(123.360692, 170.295985)"><path style="stroke:none" d="M 3.96875 -0.984375 L 1.765625 -0.984375 C 1.691406 -1.003906 1.648438 -1.046875 1.640625 -1.109375 L 1.640625 -4.828125 C 1.660156 -4.898438 1.703125 -4.941406 1.765625 -4.953125 L 3.96875 -4.953125 L 3.96875 -5.9375 L 2 -5.9375 C 1.082031 -5.9375 0.597656 -5.5625 0.546875 -4.8125 C 0.535156 -4.75 0.53125 -4.691406 0.53125 -4.640625 L 0.53125 -1.296875 C 0.539062 -0.441406 1.03125 -0.0078125 2 0 L 3.96875 0 Z M 3.96875 -0.984375 "/></g></g><g style="fill:#061624;fill-opacity:1;"><g transform="translate(129.833275, 170.295985)"><path style="stroke:none" d="M 4.140625 0 L 4.140625 -0.953125 L 1.734375 -0.953125 L 1.734375 -2.546875 L 3.90625 -2.546875 L 3.90625 -3.484375 L 1.734375 -3.484375 L 1.734375 -4.984375 L 4.09375 -4.984375 L 4.09375 -5.9375 L 0.640625 -5.9375 L 0.640625 0 Z M 4.140625 0 "/></g></g><g style="fill:#061624;fill-opacity:1;"><g transform="translate(238.692982, 170.295985)"><path style="stroke:none" d="M 0.390625 -1.765625 L 0.390625 0 L 4.078125 0 L 4.078125 -0.953125 L 1.5 -0.953125 L 1.5 -1.75 C 1.5 -1.882812 1.539062 -1.984375 1.625 -2.046875 C 1.644531 -2.046875 1.660156 -2.050781 1.671875 -2.0625 L 3.25 -2.875 C 3.65625 -3.082031 3.910156 -3.289062 4.015625 -3.5 C 4.078125 -3.644531 4.109375 -3.804688 4.109375 -3.984375 L 4.109375 -4.671875 C 4.109375 -5.515625 3.707031 -5.953125 2.90625 -5.984375 C 2.851562 -5.984375 2.800781 -5.984375 2.75 -5.984375 L 0.53125 -5.9375 L 0.53125 -4.984375 L 2.890625 -4.984375 C 2.960938 -4.972656 3.003906 -4.929688 3.015625 -4.859375 L 3.015625 -3.953125 C 3.003906 -3.890625 2.957031 -3.832031 2.875 -3.78125 L 1.21875 -2.921875 C 0.875 -2.753906 0.660156 -2.609375 0.578125 -2.484375 C 0.453125 -2.304688 0.390625 -2.066406 0.390625 -1.765625 Z M 0.390625 -1.765625 "/></g></g><g style="fill:#061624;fill-opacity:1;"><g transform="translate(245.48346, 170.295985)"><path style="stroke:none" d="M 3.421875 -5.03125 C 3.492188 -5.03125 3.53125 -4.992188 3.53125 -4.921875 L 3.53125 -1.015625 C 3.53125 -0.941406 3.492188 -0.90625 3.421875 -0.90625 L 1.875 -0.90625 C 1.800781 -0.90625 1.765625 -0.941406 1.765625 -1.015625 L 1.765625 -4.921875 C 1.765625 -4.992188 1.800781 -5.03125 1.875 -5.03125 Z M 0.640625 -1.21875 C 0.640625 -0.382812 1.082031 0.046875 1.96875 0.078125 C 2.007812 0.078125 2.050781 0.078125 2.09375 0.078125 L 3.203125 0.078125 C 4.148438 0.0351562 4.632812 -0.394531 4.65625 -1.21875 L 4.65625 -4.71875 C 4.644531 -5.582031 4.160156 -6.019531 3.203125 -6.03125 L 2.09375 -6.03125 C 1.125 -6.007812 0.640625 -5.570312 0.640625 -4.71875 Z M 0.640625 -1.21875 "/></g></g><g style="fill:#061624;fill-opacity:1;"><g transform="translate(253.134121, 170.295985)"><path style="stroke:none" d="M 3.921875 -0.890625 L 2.9375 -0.890625 L 2.9375 -5.9375 L 1.921875 -5.9375 L 0.171875 -4.828125 L 0.625 -4.078125 L 1.84375 -4.796875 L 1.84375 -0.890625 L 0.53125 -0.890625 L 0.53125 0 L 3.921875 0 Z M 3.921875 -0.890625 "/></g></g><g style="fill:#061624;fill-opacity:1;"><g transform="translate(259.634754, 170.295985)"><path style="stroke:none" d="M 3.109375 0.03125 C 3.984375 0.03125 4.484375 -0.304688 4.609375 -0.984375 C 4.628906 -1.097656 4.640625 -1.21875 4.640625 -1.34375 L 4.640625 -2 C 4.628906 -2.519531 4.425781 -2.867188 4.03125 -3.046875 C 4.394531 -3.242188 4.582031 -3.570312 4.59375 -4.03125 L 4.59375 -4.609375 C 4.59375 -5.453125 4.160156 -5.90625 3.296875 -5.96875 C 3.222656 -5.976562 3.148438 -5.984375 3.078125 -5.984375 L 2.125 -5.984375 C 1.15625 -5.984375 0.644531 -5.5625 0.59375 -4.71875 C 0.59375 -4.6875 0.59375 -4.648438 0.59375 -4.609375 L 0.59375 -4.03125 C 0.601562 -3.570312 0.789062 -3.242188 1.15625 -3.046875 C 0.757812 -2.859375 0.554688 -2.507812 0.546875 -2 L 0.546875 -1.34375 C 0.546875 -0.601562 0.894531 -0.160156 1.59375 -0.015625 C 1.75 0.015625 1.910156 0.03125 2.078125 0.03125 Z M 1.671875 -1.078125 L 1.671875 -2.453125 C 1.679688 -2.535156 1.722656 -2.578125 1.796875 -2.578125 L 3.390625 -2.578125 C 3.472656 -2.566406 3.519531 -2.523438 3.53125 -2.453125 L 3.53125 -1.078125 C 3.507812 -1.003906 3.460938 -0.960938 3.390625 -0.953125 L 1.796875 -0.953125 C 1.722656 -0.960938 1.679688 -1.003906 1.671875 -1.078125 Z M 1.71875 -3.625 L 1.71875 -4.859375 C 1.726562 -4.929688 1.769531 -4.972656 1.84375 -4.984375 L 3.34375 -4.984375 C 3.425781 -4.972656 3.472656 -4.929688 3.484375 -4.859375 L 3.484375 -3.625 C 3.460938 -3.550781 3.414062 -3.507812 3.34375 -3.5 L 1.84375 -3.5 C 1.769531 -3.519531 1.726562 -3.5625 1.71875 -3.625 Z M 1.71875 -3.625 "/></g></g></g></svg>