<svg xmlns="http://www.w3.org/2000/svg" xmlns:xlink="http://www.w3.org/1999/xlink" width="500" zoomAndPan="magnify" viewBox="0 0 375 374.999991" height="500" preserveAspectRatio="xMidYMid meet" version="1.2"><defs><clipPath id="133176d290"><path d="M 43.796875 163 L 62 163 L 62 185 L 43.796875 185 Z M 43.796875 163 "/></clipPath><clipPath id="281f26f82b"><path d="M 138 37.5 L 149 37.5 L 149 46 L 138 46 Z M 138 37.5 "/></clipPath><clipPath id="e8a9c631dd"><path d="M 226 37.5 L 237 37.5 L 237 46 L 226 46 Z M 226 37.5 "/></clipPath><clipPath id="520df1eab5"><path d="M 208 95.300781 L 274 95.300781 L 274 158 L 208 158 Z M 208 95.300781 "/></clipPath><clipPath id="ede0ae21e2"><path d="M 81.585938 127 L 103 127 L 103 155 L 81.585938 155 Z M 81.585938 127 "/></clipPath><clipPath id="7269ebe0fb"><path d="M 101 95.300781 L 166 95.300781 L 166 158 L 101 158 Z M 101 95.300781 "/></clipPath><clipPath id="3d2864eedf"><path d="M 136 127 L 239 127 L 239 233.300781 L 136 233.300781 Z M 136 127 "/></clipPath></defs><g id="26b1347858"><g style="fill:#061624;fill-opacity:1;"><g transform="translate(48.821332, 334.023201)"><path style="stroke:none" d="M 8.46875 -34.90625 L 13.359375 -34.90625 C 15.421875 -34.90625 16.984375 -34.375 18.046875 -33.3125 C 19.109375 -32.257812 19.640625 -30.695312 19.640625 -28.625 L 19.640625 -24 C 19.640625 -23.53125 19.40625 -23.296875 18.9375 -23.296875 L 14.40625 -23.296875 C 13.9375 -23.296875 13.703125 -23.53125 13.703125 -24 L 13.703125 -27.40625 C 13.703125 -28.570312 13.117188 -29.15625 11.953125 -29.15625 L 9.859375 -29.15625 C 8.691406 -29.15625 8.109375 -28.570312 8.109375 -27.40625 L 8.109375 -21.390625 L 18.5 -17.984375 C 19.257812 -17.660156 19.640625 -17.117188 19.640625 -16.359375 L 19.640625 -6.28125 C 19.640625 -4.25 19.109375 -2.691406 18.046875 -1.609375 C 16.984375 -0.535156 15.421875 0 13.359375 0 L 8.46875 0 C 6.425781 0 4.867188 -0.535156 3.796875 -1.609375 C 2.722656 -2.691406 2.1875 -4.25 2.1875 -6.28125 L 2.1875 -10.859375 C 2.1875 -11.328125 2.414062 -11.5625 2.875 -11.5625 L 7.421875 -11.5625 C 7.878906 -11.5625 8.109375 -11.328125 8.109375 -10.859375 L 8.109375 -7.5 C 8.109375 -6.34375 8.691406 -5.765625 9.859375 -5.765625 L 11.953125 -5.765625 C 13.117188 -5.765625 13.703125 -6.34375 13.703125 -7.5 L 13.703125 -13.3125 L 3.359375 -16.71875 C 2.578125 -16.976562 2.1875 -17.515625 2.1875 -18.328125 L 2.1875 -28.625 C 2.1875 -30.695312 2.722656 -32.257812 3.796875 -33.3125 C 4.867188 -34.375 6.425781 -34.90625 8.46875 -34.90625 Z M 8.46875 -34.90625 "/></g></g><g style="fill:#061624;fill-opacity:1;"><g transform="translate(74.351394, 334.023201)"><path style="stroke:none" d="M 2 -34.90625 L 18.0625 -34.90625 C 18.53125 -34.90625 18.765625 -34.675781 18.765625 -34.21875 L 18.765625 -29.84375 C 18.765625 -29.382812 18.53125 -29.15625 18.0625 -29.15625 L 13 -29.15625 L 13 -0.703125 C 13 -0.234375 12.769531 0 12.3125 0 L 7.765625 0 C 7.296875 0 7.0625 -0.234375 7.0625 -0.703125 L 7.0625 -29.15625 L 2 -29.15625 C 1.539062 -29.15625 1.3125 -29.382812 1.3125 -29.84375 L 1.3125 -34.21875 C 1.3125 -34.675781 1.539062 -34.90625 2 -34.90625 Z M 2 -34.90625 "/></g></g><g style="fill:#061624;fill-opacity:1;"><g transform="translate(98.135831, 334.023201)"><path style="stroke:none" d="M 20.125 -28.625 L 20.125 -17.984375 C 20.125 -15.066406 19.0625 -13.144531 16.9375 -12.21875 L 19.9375 -0.78125 C 20.082031 -0.257812 19.878906 0 19.328125 0 L 14.796875 0 C 14.390625 0 14.140625 -0.203125 14.046875 -0.609375 L 11.125 -11.703125 L 8.109375 -11.703125 L 8.109375 -0.703125 C 8.109375 -0.234375 7.878906 0 7.421875 0 L 2.875 0 C 2.414062 0 2.1875 -0.234375 2.1875 -0.703125 L 2.1875 -34.21875 C 2.1875 -34.675781 2.414062 -34.90625 2.875 -34.90625 L 13.828125 -34.90625 C 15.898438 -34.90625 17.46875 -34.375 18.53125 -33.3125 C 19.59375 -32.257812 20.125 -30.695312 20.125 -28.625 Z M 8.109375 -17.453125 L 12.4375 -17.453125 C 13.601562 -17.453125 14.1875 -18.035156 14.1875 -19.203125 L 14.1875 -27.40625 C 14.1875 -28.570312 13.601562 -29.15625 12.4375 -29.15625 L 8.109375 -29.15625 Z M 8.109375 -17.453125 "/></g></g><g style="fill:#061624;fill-opacity:1;"><g transform="translate(124.145938, 334.023201)"><path style="stroke:none" d="M 2.1875 -6.28125 L 2.1875 -28.625 C 2.1875 -30.695312 2.722656 -32.257812 3.796875 -33.3125 C 4.867188 -34.375 6.425781 -34.90625 8.46875 -34.90625 L 13.359375 -34.90625 C 15.421875 -34.90625 16.984375 -34.375 18.046875 -33.3125 C 19.109375 -32.257812 19.640625 -30.695312 19.640625 -28.625 L 19.640625 -6.28125 C 19.640625 -4.25 19.109375 -2.691406 18.046875 -1.609375 C 16.984375 -0.535156 15.421875 0 13.359375 0 L 8.46875 0 C 6.425781 0 4.867188 -0.535156 3.796875 -1.609375 C 2.722656 -2.691406 2.1875 -4.25 2.1875 -6.28125 Z M 9.734375 -5.625 L 12.265625 -5.625 C 13.429688 -5.625 14.015625 -6.207031 14.015625 -7.375 L 14.015625 -27.53125 C 14.015625 -28.695312 13.429688 -29.28125 12.265625 -29.28125 L 9.734375 -29.28125 C 8.566406 -29.28125 7.984375 -28.695312 7.984375 -27.53125 L 7.984375 -7.375 C 7.984375 -6.207031 8.566406 -5.625 9.734375 -5.625 Z M 9.734375 -5.625 "/></g></g><g style="fill:#061624;fill-opacity:1;"><g transform="translate(149.676, 334.023201)"><path style="stroke:none" d="M 15.578125 -34.90625 L 20.125 -34.90625 C 20.582031 -34.90625 20.8125 -34.675781 20.8125 -34.21875 L 20.8125 -0.703125 C 20.8125 -0.234375 20.582031 0 20.125 0 L 15.796875 0 C 15.390625 0 15.128906 -0.1875 15.015625 -0.5625 L 8.328125 -19.203125 L 8.109375 -19.203125 L 8.109375 -0.703125 C 8.109375 -0.234375 7.878906 0 7.421875 0 L 2.875 0 C 2.414062 0 2.1875 -0.234375 2.1875 -0.703125 L 2.1875 -34.21875 C 2.1875 -34.675781 2.414062 -34.90625 2.875 -34.90625 L 7.203125 -34.90625 C 7.609375 -34.90625 7.867188 -34.71875 7.984375 -34.34375 L 14.625 -15.796875 L 14.875 -15.796875 L 14.875 -34.21875 C 14.875 -34.675781 15.109375 -34.90625 15.578125 -34.90625 Z M 15.578125 -34.90625 "/></g></g><g style="fill:#061624;fill-opacity:1;"><g transform="translate(176.384357, 334.023201)"><path style="stroke:none" d="M 2.1875 -6.28125 L 2.1875 -28.625 C 2.1875 -30.695312 2.722656 -32.257812 3.796875 -33.3125 C 4.867188 -34.375 6.425781 -34.90625 8.46875 -34.90625 L 14.234375 -34.90625 C 16.265625 -34.90625 17.816406 -34.375 18.890625 -33.3125 C 19.972656 -32.257812 20.515625 -30.695312 20.515625 -28.625 L 20.515625 -24.09375 C 20.515625 -23.625 20.28125 -23.390625 19.8125 -23.390625 L 15.453125 -23.390625 C 14.984375 -23.390625 14.75 -23.625 14.75 -24.09375 L 14.75 -27.40625 C 14.75 -28.570312 14.164062 -29.15625 13 -29.15625 L 9.859375 -29.15625 C 8.691406 -29.15625 8.109375 -28.570312 8.109375 -27.40625 L 8.109375 -7.5 C 8.109375 -6.34375 8.691406 -5.765625 9.859375 -5.765625 L 13 -5.765625 C 14.164062 -5.765625 14.75 -6.34375 14.75 -7.5 L 14.75 -13.359375 L 12.484375 -13.359375 C 12.015625 -13.359375 11.78125 -13.585938 11.78125 -14.046875 L 11.78125 -18.421875 C 11.78125 -18.878906 12.015625 -19.109375 12.484375 -19.109375 L 19.8125 -19.109375 C 20.28125 -19.109375 20.515625 -18.878906 20.515625 -18.421875 L 20.515625 -6.28125 C 20.515625 -4.25 19.972656 -2.691406 18.890625 -1.609375 C 17.816406 -0.535156 16.265625 0 14.234375 0 L 8.46875 0 C 6.425781 0 4.867188 -0.535156 3.796875 -1.609375 C 2.722656 -2.691406 2.1875 -4.25 2.1875 -6.28125 Z M 2.1875 -6.28125 "/></g></g><g style="fill:#0cc0df;fill-opacity:1;"><g transform="translate(202.793978, 334.023201)"><path style="stroke:none" d="M 2 -34.90625 L 18.0625 -34.90625 C 18.53125 -34.90625 18.765625 -34.675781 18.765625 -34.21875 L 18.765625 -29.84375 C 18.765625 -29.382812 18.53125 -29.15625 18.0625 -29.15625 L 13 -29.15625 L 13 -0.703125 C 13 -0.234375 12.769531 0 12.3125 0 L 7.765625 0 C 7.296875 0 7.0625 -0.234375 7.0625 -0.703125 L 7.0625 -29.15625 L 2 -29.15625 C 1.539062 -29.15625 1.3125 -29.382812 1.3125 -29.84375 L 1.3125 -34.21875 C 1.3125 -34.675781 1.539062 -34.90625 2 -34.90625 Z M 2 -34.90625 "/></g></g><g style="fill:#0cc0df;fill-opacity:1;"><g transform="translate(226.578415, 334.023201)"><path style="stroke:none" d="M 2.1875 -6.28125 L 2.1875 -28.625 C 2.1875 -30.695312 2.722656 -32.257812 3.796875 -33.3125 C 4.867188 -34.375 6.425781 -34.90625 8.46875 -34.90625 L 13.359375 -34.90625 C 15.421875 -34.90625 16.984375 -34.375 18.046875 -33.3125 C 19.109375 -32.257812 19.640625 -30.695312 19.640625 -28.625 L 19.640625 -6.28125 C 19.640625 -4.25 19.109375 -2.691406 18.046875 -1.609375 C 16.984375 -0.535156 15.421875 0 13.359375 0 L 8.46875 0 C 6.425781 0 4.867188 -0.535156 3.796875 -1.609375 C 2.722656 -2.691406 2.1875 -4.25 2.1875 -6.28125 Z M 9.734375 -5.625 L 12.265625 -5.625 C 13.429688 -5.625 14.015625 -6.207031 14.015625 -7.375 L 14.015625 -27.53125 C 14.015625 -28.695312 13.429688 -29.28125 12.265625 -29.28125 L 9.734375 -29.28125 C 8.566406 -29.28125 7.984375 -28.695312 7.984375 -27.53125 L 7.984375 -7.375 C 7.984375 -6.207031 8.566406 -5.625 9.734375 -5.625 Z M 9.734375 -5.625 "/></g></g><g style="fill:#0cc0df;fill-opacity:1;"><g transform="translate(252.108477, 334.023201)"><path style="stroke:none" d="M 2.1875 -6.28125 L 2.1875 -28.625 C 2.1875 -30.695312 2.722656 -32.257812 3.796875 -33.3125 C 4.867188 -34.375 6.425781 -34.90625 8.46875 -34.90625 L 13.359375 -34.90625 C 15.421875 -34.90625 16.984375 -34.375 18.046875 -33.3125 C 19.109375 -32.257812 19.640625 -30.695312 19.640625 -28.625 L 19.640625 -6.28125 C 19.640625 -4.25 19.109375 -2.691406 18.046875 -1.609375 C 16.984375 -0.535156 15.421875 0 13.359375 0 L 8.46875 0 C 6.425781 0 4.867188 -0.535156 3.796875 -1.609375 C 2.722656 -2.691406 2.1875 -4.25 2.1875 -6.28125 Z M 9.734375 -5.625 L 12.265625 -5.625 C 13.429688 -5.625 14.015625 -6.207031 14.015625 -7.375 L 14.015625 -27.53125 C 14.015625 -28.695312 13.429688 -29.28125 12.265625 -29.28125 L 9.734375 -29.28125 C 8.566406 -29.28125 7.984375 -28.695312 7.984375 -27.53125 L 7.984375 -7.375 C 7.984375 -6.207031 8.566406 -5.625 9.734375 -5.625 Z M 9.734375 -5.625 "/></g></g><g style="fill:#0cc0df;fill-opacity:1;"><g transform="translate(277.638539, 334.023201)"><path style="stroke:none" d="M 15.578125 -34.90625 L 20.125 -34.90625 C 20.582031 -34.90625 20.8125 -34.675781 20.8125 -34.21875 L 20.8125 -0.703125 C 20.8125 -0.234375 20.582031 0 20.125 0 L 15.796875 0 C 15.390625 0 15.128906 -0.1875 15.015625 -0.5625 L 8.328125 -19.203125 L 8.109375 -19.203125 L 8.109375 -0.703125 C 8.109375 -0.234375 7.878906 0 7.421875 0 L 2.875 0 C 2.414062 0 2.1875 -0.234375 2.1875 -0.703125 L 2.1875 -34.21875 C 2.1875 -34.675781 2.414062 -34.90625 2.875 -34.90625 L 7.203125 -34.90625 C 7.609375 -34.90625 7.867188 -34.71875 7.984375 -34.34375 L 14.625 -15.796875 L 14.875 -15.796875 L 14.875 -34.21875 C 14.875 -34.675781 15.109375 -34.90625 15.578125 -34.90625 Z M 15.578125 -34.90625 "/></g></g><g style="fill:#0cc0df;fill-opacity:1;"><g transform="translate(304.346896, 334.023201)"><path style="stroke:none" d="M 8.46875 -34.90625 L 13.359375 -34.90625 C 15.421875 -34.90625 16.984375 -34.375 18.046875 -33.3125 C 19.109375 -32.257812 19.640625 -30.695312 19.640625 -28.625 L 19.640625 -24 C 19.640625 -23.53125 19.40625 -23.296875 18.9375 -23.296875 L 14.40625 -23.296875 C 13.9375 -23.296875 13.703125 -23.53125 13.703125 -24 L 13.703125 -27.40625 C 13.703125 -28.570312 13.117188 -29.15625 11.953125 -29.15625 L 9.859375 -29.15625 C 8.691406 -29.15625 8.109375 -28.570312 8.109375 -27.40625 L 8.109375 -21.390625 L 18.5 -17.984375 C 19.257812 -17.660156 19.640625 -17.117188 19.640625 -16.359375 L 19.640625 -6.28125 C 19.640625 -4.25 19.109375 -2.691406 18.046875 -1.609375 C 16.984375 -0.535156 15.421875 0 13.359375 0 L 8.46875 0 C 6.425781 0 4.867188 -0.535156 3.796875 -1.609375 C 2.722656 -2.691406 2.1875 -4.25 2.1875 -6.28125 L 2.1875 -10.859375 C 2.1875 -11.328125 2.414062 -11.5625 2.875 -11.5625 L 7.421875 -11.5625 C 7.878906 -11.5625 8.109375 -11.328125 8.109375 -10.859375 L 8.109375 -7.5 C 8.109375 -6.34375 8.691406 -5.765625 9.859375 -5.765625 L 11.953125 -5.765625 C 13.117188 -5.765625 13.703125 -6.34375 13.703125 -7.5 L 13.703125 -13.3125 L 3.359375 -16.71875 C 2.578125 -16.976562 2.1875 -17.515625 2.1875 -18.328125 L 2.1875 -28.625 C 2.1875 -30.695312 2.722656 -32.257812 3.796875 -33.3125 C 4.867188 -34.375 6.425781 -34.90625 8.46875 -34.90625 Z M 8.46875 -34.90625 "/></g></g><path style=" stroke:none;fill-rule:nonzero;fill:#25323b;fill-opacity:1;" d="M 56.089844 150.761719 C 59.300781 156.007812 59.121094 164.605469 59.1875 164.652344 C 59.214844 164.605469 52.789062 165.757812 48.996094 160.515625 C 45.132812 155.199219 46.386719 145.507812 46.457031 145.558594 C 46.488281 145.519531 52.832031 145.472656 56.089844 150.761719 "/><path style=" stroke:none;fill-rule:nonzero;fill:#25323b;fill-opacity:1;" d="M 63.273438 151.140625 C 59.226562 155.804688 60.027344 164.652344 60.101562 164.605469 C 60.125 164.652344 66.460938 164.847656 69.96875 160.179688 C 73.417969 155.558594 73.542969 147.839844 73.601562 147.800781 C 73.621094 147.851562 67.25 146.527344 63.273438 151.140625 "/><path style=" stroke:none;fill-rule:nonzero;fill:#25323b;fill-opacity:1;" d="M 58.398438 134.707031 C 60.730469 139.964844 59.421875 148.007812 59.46875 148.050781 C 59.496094 148.011719 53.335938 148.371094 50.476562 143.046875 C 47.570312 137.667969 49.976562 128.765625 50.035156 128.808594 C 50.066406 128.78125 56.019531 129.398438 58.398438 134.707031 "/><path style=" stroke:none;fill-rule:nonzero;fill:#25323b;fill-opacity:1;" d="M 65.078125 135.828125 C 60.683594 139.773438 60.265625 148.144531 60.328125 148.105469 C 60.347656 148.152344 66.253906 149.0625 70.15625 145.050781 C 74.007812 141.089844 75.125 133.808594 75.183594 133.785156 C 75.199219 133.824219 69.390625 131.917969 65.078125 135.828125 "/><path style=" stroke:none;fill-rule:nonzero;fill:#25323b;fill-opacity:1;" d="M 62.894531 119.03125 C 64.386719 124.195312 62.074219 131.574219 62.117188 131.609375 C 62.152344 131.582031 56.355469 131.21875 54.40625 125.957031 C 52.40625 120.625 55.800781 112.59375 55.847656 112.644531 C 55.882812 112.621094 61.359375 113.816406 62.894531 119.03125 "/><path style=" stroke:none;fill-rule:nonzero;fill:#25323b;fill-opacity:1;" d="M 68.984375 120.789062 C 64.367188 124.019531 62.847656 131.789062 62.910156 131.765625 C 62.921875 131.800781 68.3125 133.324219 72.5 129.996094 C 76.625 126.699219 78.640625 119.949219 78.691406 119.933594 C 78.699219 119.96875 73.53125 117.589844 68.984375 120.789062 "/><path style=" stroke:none;fill-rule:nonzero;fill:#25323b;fill-opacity:1;" d="M 69.574219 103.960938 C 70.261719 108.9375 67.101562 115.566406 67.132812 115.597656 C 67.167969 115.570312 61.835938 114.589844 60.742188 109.480469 C 59.601562 104.324219 63.828125 97.222656 63.867188 97.277344 C 63.898438 97.25 68.847656 98.949219 69.574219 103.960938 "/><path style=" stroke:none;fill-rule:nonzero;fill:#25323b;fill-opacity:1;" d="M 75.003906 106.25 C 70.265625 108.785156 67.789062 115.847656 67.851562 115.835938 C 67.855469 115.863281 72.652344 117.890625 77.015625 115.230469 C 81.3125 112.597656 84.117188 106.464844 84.171875 106.460938 C 84.171875 106.492188 79.675781 103.738281 75.003906 106.25 "/><path style=" stroke:none;fill-rule:nonzero;fill:#25323b;fill-opacity:1;" d="M 78.421875 89.726562 C 78.375 94.425781 74.496094 100.234375 74.519531 100.269531 C 74.546875 100.253906 69.753906 98.746094 69.457031 93.894531 C 69.121094 88.996094 74.023438 82.878906 74.054688 82.925781 C 74.082031 82.902344 78.457031 84.996094 78.421875 89.726562 "/><path style=" stroke:none;fill-rule:nonzero;fill:#25323b;fill-opacity:1;" d="M 83.15625 92.429688 C 78.390625 94.292969 75.09375 100.570312 75.152344 100.566406 C 75.152344 100.597656 79.304688 103.015625 83.730469 101.007812 C 88.105469 99.011719 91.605469 93.570312 91.652344 93.570312 C 91.652344 93.597656 87.851562 90.582031 83.15625 92.429688 "/><path style=" stroke:none;fill-rule:nonzero;fill:#25323b;fill-opacity:1;" d="M 87.632812 78.523438 C 87.003906 82.863281 82.671875 87.898438 82.691406 87.921875 C 82.71875 87.917969 78.476562 86.0625 78.796875 81.554688 C 79.097656 77.007812 84.375 71.800781 84.398438 71.84375 C 84.433594 71.828125 88.242188 74.140625 87.632812 78.523438 "/><path style=" stroke:none;fill-rule:nonzero;fill:#25323b;fill-opacity:1;" d="M 91.6875 81.441406 C 87.03125 82.753906 83.1875 88.257812 83.238281 88.257812 C 83.234375 88.289062 86.765625 90.925781 91.136719 89.460938 C 95.457031 88 99.398438 83.222656 99.449219 83.226562 C 99.445312 83.257812 96.285156 80.132812 91.6875 81.441406 "/><path style=" stroke:none;fill-rule:nonzero;fill:#25323b;fill-opacity:1;" d="M 132.085938 272.941406 C 143.777344 272.714844 161.175781 278.203125 161.464844 278.074219 C 161.398438 277.976562 160.507812 287.476562 147.285156 289.132812 C 133.679688 290.90625 115.628906 281.601562 115.964844 281.472656 C 115.910156 281.367188 120.070312 273.257812 132.085938 272.941406 "/><path style=" stroke:none;fill-rule:nonzero;fill:#25323b;fill-opacity:1;" d="M 137.347656 263.820312 C 143.117188 272.574219 161.808594 277.054688 161.855469 276.824219 C 162.054688 276.808594 165.414062 268.410156 158.289062 260.941406 C 151.199219 253.613281 138.28125 248.21875 138.292969 248.054688 C 138.46875 248.058594 131.5625 255.320312 137.347656 263.820312 "/><path style=" stroke:none;fill-rule:nonzero;fill:#25323b;fill-opacity:1;" d="M 105.222656 257.179688 C 115.617188 258.820312 128.988281 266.59375 129.230469 266.523438 C 129.1875 266.417969 125.773438 274.84375 114.023438 274.242188 C 101.96875 273.691406 88.558594 262.476562 88.839844 262.421875 C 88.808594 262.316406 94.574219 255.582031 105.222656 257.179688 "/><path style=" stroke:none;fill-rule:nonzero;fill:#25323b;fill-opacity:1;" d="M 112.226562 249.738281 C 115.097656 258.597656 129.847656 265.644531 129.910156 265.457031 C 130.058594 265.464844 135.363281 258.441406 131.277344 250.507812 C 127.191406 242.71875 117.035156 235.679688 117.070312 235.535156 C 117.207031 235.574219 109.304688 241.089844 112.226562 249.738281 "/><path style=" stroke:none;fill-rule:nonzero;fill:#25323b;fill-opacity:1;" d="M 84.171875 237.472656 C 93.132812 240.636719 102.863281 249.886719 103.066406 249.859375 C 103.050781 249.761719 97.820312 256.78125 87.652344 254.332031 C 77.246094 251.882812 67.972656 239.625 68.191406 239.613281 C 68.1875 239.519531 75 234.308594 84.171875 237.472656 "/><path style=" stroke:none;fill-rule:nonzero;fill:#25323b;fill-opacity:1;" d="M 92.265625 231.847656 C 92.746094 240.378906 103.871094 249.171875 103.953125 249.011719 C 104.066406 249.042969 110.648438 243.601562 109.085938 235.710938 C 107.507812 227.964844 99.964844 219.828125 100.011719 219.703125 C 100.113281 219.746094 91.722656 223.511719 92.265625 231.847656 "/><path style=" stroke:none;fill-rule:nonzero;fill:#25323b;fill-opacity:1;" d="M 68.890625 214.78125 C 76.347656 219.128906 82.820312 229.152344 82.976562 229.152344 C 82.976562 229.066406 76.566406 234.496094 68.066406 230.601562 C 59.363281 226.664062 53.722656 214.105469 53.898438 214.128906 C 53.90625 214.042969 61.273438 210.40625 68.890625 214.78125 "/><path style=" stroke:none;fill-rule:nonzero;fill:#25323b;fill-opacity:1;" d="M 77.503906 211.007812 C 76.0625 218.851562 83.898438 228.664062 83.980469 228.539062 C 84.066406 228.582031 91.34375 224.808594 91.84375 217.382812 C 92.296875 210.0625 87.179688 201.300781 87.242188 201.207031 C 87.316406 201.261719 78.875 203.332031 77.503906 211.007812 "/><path style=" stroke:none;fill-rule:nonzero;fill:#25323b;fill-opacity:1;" d="M 59.34375 190.078125 C 65.242188 195.261719 68.828125 205.441406 68.949219 205.46875 C 68.964844 205.40625 61.933594 209.171875 55.121094 204.226562 C 48.160156 199.21875 45.667969 186.984375 45.808594 187.023438 C 45.828125 186.953125 53.324219 184.855469 59.34375 190.078125 "/><path style=" stroke:none;fill-rule:nonzero;fill:#25323b;fill-opacity:1;" d="M 67.988281 188.085938 C 65.046875 194.980469 69.914062 205.1875 69.996094 205.089844 C 70.058594 205.136719 77.546875 203.007812 79.65625 196.335938 C 81.707031 189.753906 78.839844 180.835938 78.910156 180.757812 C 78.960938 180.816406 70.847656 181.324219 67.988281 188.085938 "/><g clip-rule="nonzero" clip-path="url(#133176d290)"><path style=" stroke:none;fill-rule:nonzero;fill:#25323b;fill-opacity:1;" d="M 55.761719 168.3125 C 60.277344 173.851562 61.683594 183.675781 61.777344 183.707031 C 61.804688 183.644531 54.699219 186.015625 49.398438 180.554688 C 43.976562 175.015625 43.78125 163.597656 43.890625 163.652344 C 43.925781 163.589844 51.144531 162.699219 55.761719 168.3125 "/></g><path style=" stroke:none;fill-rule:nonzero;fill:#25323b;fill-opacity:1;" d="M 64.011719 167.722656 C 60.15625 173.597656 62.726562 183.589844 62.804688 183.515625 C 62.851562 183.5625 70.085938 182.765625 73.226562 176.96875 C 76.296875 171.234375 75.171875 162.585938 75.242188 162.535156 C 75.277344 162.585938 67.773438 161.925781 64.011719 167.722656 "/><path style=" stroke:none;fill-rule:nonzero;fill:#25323b;fill-opacity:1;" d="M 98.371094 68.21875 C 97.238281 72.167969 92.570312 76.398438 92.582031 76.429688 C 92.609375 76.425781 88.945312 74.324219 89.820312 70.210938 C 90.683594 66.0625 96.210938 61.742188 96.226562 61.785156 C 96.25 61.773438 99.496094 64.230469 98.371094 68.21875 "/><path style=" stroke:none;fill-rule:nonzero;fill:#25323b;fill-opacity:1;" d="M 101.761719 71.253906 C 97.277344 72.074219 93 76.785156 93.042969 76.792969 C 93.042969 76.8125 95.957031 79.570312 100.195312 78.617188 C 104.386719 77.652344 108.691406 73.574219 108.734375 73.578125 C 108.726562 73.597656 106.191406 70.449219 101.761719 71.253906 "/><path style=" stroke:none;fill-rule:nonzero;fill:#25323b;fill-opacity:1;" d="M 110.648438 58.941406 C 109.074219 62.464844 104.183594 65.917969 104.195312 65.949219 C 104.226562 65.941406 101.128906 63.675781 102.496094 60.003906 C 103.84375 56.289062 109.5 52.84375 109.515625 52.867188 C 109.535156 52.867188 112.214844 55.394531 110.648438 58.941406 "/><path style=" stroke:none;fill-rule:nonzero;fill:#25323b;fill-opacity:1;" d="M 113.378906 62.019531 C 109.117188 62.378906 104.53125 66.308594 104.570312 66.3125 C 104.570312 66.332031 106.863281 69.128906 110.921875 68.628906 C 114.9375 68.121094 119.492188 64.726562 119.527344 64.738281 C 119.523438 64.75 117.59375 61.660156 113.378906 62.019531 "/><path style=" stroke:none;fill-rule:nonzero;fill:#25323b;fill-opacity:1;" d="M 123.140625 51.535156 C 121.246094 54.617188 116.308594 57.359375 116.308594 57.375 C 116.332031 57.375 113.796875 55.0625 115.511719 51.84375 C 117.21875 48.597656 122.835938 45.910156 122.84375 45.9375 C 122.871094 45.929688 125.027344 48.433594 123.140625 51.535156 "/><path style=" stroke:none;fill-rule:nonzero;fill:#25323b;fill-opacity:1;" d="M 125.265625 54.546875 C 121.289062 54.546875 116.574219 57.738281 116.609375 57.746094 C 116.605469 57.757812 118.347656 60.496094 122.152344 60.367188 C 125.917969 60.222656 130.585938 57.476562 130.617188 57.476562 C 130.605469 57.492188 129.203125 54.535156 125.265625 54.546875 "/><path style=" stroke:none;fill-rule:nonzero;fill:#25323b;fill-opacity:1;" d="M 135.460938 45.792969 C 133.378906 48.445312 128.519531 50.542969 128.523438 50.5625 C 128.542969 50.5625 126.511719 48.292969 128.453125 45.53125 C 130.398438 42.730469 135.820312 40.707031 135.820312 40.738281 C 135.847656 40.738281 137.546875 43.132812 135.460938 45.792969 "/><path style=" stroke:none;fill-rule:nonzero;fill:#25323b;fill-opacity:1;" d="M 137.066406 48.652344 C 133.421875 48.378906 128.722656 50.898438 128.753906 50.914062 C 128.746094 50.925781 130.003906 53.523438 133.511719 53.671875 C 136.992188 53.816406 141.613281 51.644531 141.640625 51.652344 C 141.632812 51.660156 140.675781 48.90625 137.066406 48.652344 "/><path style=" stroke:none;fill-rule:nonzero;fill:#25323b;fill-opacity:1;" d="M 146.769531 44.425781 C 143.125 44.484375 139.097656 46.882812 139.121094 46.882812 C 139.125 46.898438 140.917969 48.886719 144.398438 48.757812 C 147.859375 48.621094 151.957031 46.523438 151.976562 46.53125 C 151.976562 46.535156 150.394531 44.355469 146.769531 44.425781 "/><g clip-rule="nonzero" clip-path="url(#281f26f82b)"><path style=" stroke:none;fill-rule:nonzero;fill:#25323b;fill-opacity:1;" d="M 145.796875 42.269531 C 143.042969 44.386719 138.382812 45.46875 138.375 45.488281 C 138.390625 45.492188 137.726562 42.964844 140.441406 40.742188 C 143.152344 38.496094 148.265625 37.582031 148.265625 37.597656 C 148.269531 37.601562 148.539062 40.140625 145.796875 42.269531 "/></g><path style=" stroke:none;fill-rule:nonzero;fill:#25323b;fill-opacity:1;" d="M 153.742188 38.933594 C 149.703125 40.101562 147.382812 42.964844 147.394531 42.964844 C 147.402344 42.964844 151.230469 43.691406 155.105469 42.566406 C 158.980469 41.433594 161.714844 38.804688 161.726562 38.800781 C 161.75 38.796875 157.785156 37.757812 153.742188 38.933594 "/><path style=" stroke:none;fill-rule:nonzero;fill:#25323b;fill-opacity:1;" d="M 318.75 150.761719 C 315.542969 156.007812 315.722656 164.605469 315.652344 164.652344 C 315.632812 164.605469 322.054688 165.757812 325.84375 160.515625 C 329.710938 155.199219 328.457031 145.507812 328.382812 145.558594 C 328.355469 145.519531 322.011719 145.472656 318.75 150.761719 "/><path style=" stroke:none;fill-rule:nonzero;fill:#25323b;fill-opacity:1;" d="M 311.566406 151.140625 C 315.617188 155.804688 314.820312 164.652344 314.742188 164.605469 C 314.71875 164.652344 308.378906 164.847656 304.875 160.179688 C 301.421875 155.558594 301.300781 147.839844 301.242188 147.800781 C 301.21875 147.851562 307.59375 146.527344 311.566406 151.140625 "/><path style=" stroke:none;fill-rule:nonzero;fill:#25323b;fill-opacity:1;" d="M 316.445312 134.707031 C 314.113281 139.964844 315.425781 148.007812 315.375 148.050781 C 315.347656 148.011719 321.507812 148.371094 324.363281 143.046875 C 327.277344 137.667969 324.871094 128.765625 324.808594 128.808594 C 324.777344 128.78125 318.820312 129.398438 316.445312 134.707031 "/><path style=" stroke:none;fill-rule:nonzero;fill:#25323b;fill-opacity:1;" d="M 309.761719 135.828125 C 314.15625 139.773438 314.582031 148.144531 314.511719 148.105469 C 314.5 148.152344 308.589844 149.0625 304.683594 145.050781 C 300.839844 141.089844 299.722656 133.808594 299.660156 133.785156 C 299.652344 133.824219 305.445312 131.917969 309.761719 135.828125 "/><path style=" stroke:none;fill-rule:nonzero;fill:#25323b;fill-opacity:1;" d="M 311.945312 119.03125 C 310.453125 124.195312 312.765625 131.574219 312.722656 131.609375 C 312.695312 131.582031 318.488281 131.21875 320.4375 125.957031 C 322.4375 120.625 319.042969 112.59375 318.996094 112.644531 C 318.960938 112.621094 313.480469 113.816406 311.945312 119.03125 "/><path style=" stroke:none;fill-rule:nonzero;fill:#25323b;fill-opacity:1;" d="M 305.859375 120.789062 C 310.480469 124.019531 312 131.789062 311.929688 131.765625 C 311.921875 131.800781 306.527344 133.324219 302.347656 129.996094 C 298.214844 126.699219 296.207031 119.949219 296.148438 119.933594 C 296.140625 119.96875 301.308594 117.589844 305.859375 120.789062 "/><path style=" stroke:none;fill-rule:nonzero;fill:#25323b;fill-opacity:1;" d="M 305.269531 103.960938 C 304.574219 108.9375 307.746094 115.566406 307.707031 115.597656 C 307.679688 115.570312 313.003906 114.589844 314.101562 109.480469 C 315.238281 104.324219 311.015625 97.222656 310.976562 97.277344 C 310.941406 97.25 305.992188 98.949219 305.269531 103.960938 "/><path style=" stroke:none;fill-rule:nonzero;fill:#25323b;fill-opacity:1;" d="M 299.839844 106.25 C 304.574219 108.785156 307.050781 115.847656 306.996094 115.835938 C 306.988281 115.863281 302.183594 117.890625 297.828125 115.230469 C 293.53125 112.597656 290.726562 106.464844 290.667969 106.460938 C 290.667969 106.492188 295.171875 103.738281 299.839844 106.25 "/><path style=" stroke:none;fill-rule:nonzero;fill:#25323b;fill-opacity:1;" d="M 296.414062 89.726562 C 296.46875 94.425781 300.347656 100.234375 300.320312 100.269531 C 300.296875 100.253906 305.085938 98.746094 305.390625 93.894531 C 305.714844 88.996094 300.820312 82.878906 300.789062 82.925781 C 300.757812 82.902344 296.386719 84.996094 296.414062 89.726562 "/><path style=" stroke:none;fill-rule:nonzero;fill:#25323b;fill-opacity:1;" d="M 291.6875 92.429688 C 296.449219 94.292969 299.746094 100.570312 299.695312 100.566406 C 299.695312 100.597656 295.535156 103.015625 291.109375 101.007812 C 286.734375 99.011719 283.238281 93.570312 283.195312 93.570312 C 283.195312 93.597656 286.992188 90.582031 291.6875 92.429688 "/><path style=" stroke:none;fill-rule:nonzero;fill:#25323b;fill-opacity:1;" d="M 287.210938 78.523438 C 287.835938 82.863281 292.167969 87.898438 292.148438 87.921875 C 292.121094 87.917969 296.363281 86.0625 296.042969 81.554688 C 295.738281 77.007812 290.464844 71.800781 290.445312 71.84375 C 290.410156 71.828125 286.601562 74.140625 287.210938 78.523438 "/><path style=" stroke:none;fill-rule:nonzero;fill:#25323b;fill-opacity:1;" d="M 283.160156 81.441406 C 287.8125 82.753906 291.65625 88.257812 291.597656 88.257812 C 291.605469 88.289062 288.070312 90.925781 283.703125 89.460938 C 279.382812 88 275.445312 83.222656 275.398438 83.226562 C 275.398438 83.257812 278.5625 80.132812 283.160156 81.441406 "/><path style=" stroke:none;fill-rule:nonzero;fill:#25323b;fill-opacity:1;" d="M 242.761719 272.941406 C 231.066406 272.714844 213.671875 278.203125 213.375 278.074219 C 213.449219 277.976562 214.335938 287.476562 227.554688 289.132812 C 241.164062 290.90625 259.214844 281.601562 258.882812 281.472656 C 258.933594 281.367188 254.773438 273.257812 242.761719 272.941406 "/><path style=" stroke:none;fill-rule:nonzero;fill:#25323b;fill-opacity:1;" d="M 237.496094 263.820312 C 231.726562 272.574219 213.03125 277.054688 212.984375 276.824219 C 212.792969 276.808594 209.433594 268.410156 216.554688 260.941406 C 223.640625 253.613281 236.558594 248.21875 236.550781 248.054688 C 236.375 248.058594 243.285156 255.320312 237.496094 263.820312 "/><path style=" stroke:none;fill-rule:nonzero;fill:#25323b;fill-opacity:1;" d="M 269.621094 257.179688 C 259.226562 258.820312 245.859375 266.59375 245.613281 266.523438 C 245.660156 266.417969 249.070312 274.84375 260.816406 274.242188 C 272.871094 273.691406 286.285156 262.476562 286.003906 262.421875 C 286.039062 262.316406 280.265625 255.582031 269.621094 257.179688 "/><path style=" stroke:none;fill-rule:nonzero;fill:#25323b;fill-opacity:1;" d="M 262.617188 249.738281 C 259.746094 258.597656 244.992188 265.644531 244.929688 265.457031 C 244.777344 265.464844 239.476562 258.441406 243.570312 250.507812 C 247.652344 242.71875 257.804688 235.679688 257.769531 235.535156 C 257.636719 235.574219 265.539062 241.089844 262.617188 249.738281 "/><path style=" stroke:none;fill-rule:nonzero;fill:#25323b;fill-opacity:1;" d="M 290.667969 237.472656 C 281.710938 240.636719 271.976562 249.886719 271.773438 249.859375 C 271.792969 249.761719 277.019531 256.78125 287.183594 254.332031 C 297.597656 251.882812 306.878906 239.625 306.648438 239.613281 C 306.65625 239.519531 299.839844 234.308594 290.667969 237.472656 "/><path style=" stroke:none;fill-rule:nonzero;fill:#25323b;fill-opacity:1;" d="M 282.582031 231.847656 C 282.097656 240.378906 270.964844 249.171875 270.894531 249.011719 C 270.773438 249.042969 264.191406 243.601562 265.753906 235.710938 C 267.335938 227.964844 274.882812 219.828125 274.832031 219.703125 C 274.730469 219.746094 283.121094 223.511719 282.582031 231.847656 "/><path style=" stroke:none;fill-rule:nonzero;fill:#25323b;fill-opacity:1;" d="M 305.953125 214.78125 C 298.496094 219.128906 292.027344 229.152344 291.867188 229.152344 C 291.867188 229.066406 298.273438 234.496094 306.777344 230.601562 C 315.476562 226.664062 321.125 214.105469 320.945312 214.128906 C 320.9375 214.042969 313.566406 210.40625 305.953125 214.78125 "/><path style=" stroke:none;fill-rule:nonzero;fill:#25323b;fill-opacity:1;" d="M 297.339844 211.007812 C 298.777344 218.851562 290.941406 228.664062 290.863281 228.539062 C 290.78125 228.582031 283.492188 224.808594 283 217.382812 C 282.550781 210.0625 287.664062 201.300781 287.601562 201.207031 C 287.527344 201.261719 295.96875 203.332031 297.339844 211.007812 "/><path style=" stroke:none;fill-rule:nonzero;fill:#25323b;fill-opacity:1;" d="M 315.503906 190.078125 C 309.605469 195.261719 306.019531 205.441406 305.890625 205.46875 C 305.875 205.40625 312.914062 209.171875 319.71875 204.226562 C 326.683594 199.21875 329.179688 186.984375 329.039062 187.023438 C 329.015625 186.953125 321.523438 184.855469 315.503906 190.078125 "/><path style=" stroke:none;fill-rule:nonzero;fill:#25323b;fill-opacity:1;" d="M 306.851562 188.085938 C 309.796875 194.980469 304.929688 205.1875 304.839844 205.089844 C 304.789062 205.136719 297.296875 203.007812 295.191406 196.335938 C 293.128906 189.753906 296 180.835938 295.933594 180.757812 C 295.878906 180.816406 303.992188 181.324219 306.851562 188.085938 "/><path style=" stroke:none;fill-rule:nonzero;fill:#25323b;fill-opacity:1;" d="M 319.085938 168.3125 C 314.566406 173.851562 313.15625 183.675781 313.066406 183.707031 C 313.039062 183.644531 320.140625 186.015625 325.445312 180.554688 C 330.859375 175.015625 331.058594 163.597656 330.953125 163.652344 C 330.921875 163.589844 323.699219 162.699219 319.085938 168.3125 "/><path style=" stroke:none;fill-rule:nonzero;fill:#25323b;fill-opacity:1;" d="M 310.832031 167.722656 C 314.6875 173.597656 312.117188 183.589844 312.039062 183.515625 C 311.988281 183.5625 304.757812 182.765625 301.617188 176.96875 C 298.542969 171.234375 299.671875 162.585938 299.597656 162.535156 C 299.5625 162.585938 307.066406 161.925781 310.832031 167.722656 "/><path style=" stroke:none;fill-rule:nonzero;fill:#25323b;fill-opacity:1;" d="M 276.46875 68.21875 C 277.605469 72.167969 282.273438 76.398438 282.257812 76.429688 C 282.230469 76.425781 285.898438 74.324219 285.023438 70.210938 C 284.160156 66.0625 278.632812 61.742188 278.617188 61.785156 C 278.589844 61.773438 275.339844 64.230469 276.46875 68.21875 "/><path style=" stroke:none;fill-rule:nonzero;fill:#25323b;fill-opacity:1;" d="M 273.085938 71.253906 C 277.570312 72.074219 281.847656 76.785156 281.796875 76.792969 C 281.796875 76.8125 278.886719 79.570312 274.644531 78.617188 C 270.453125 77.652344 266.148438 73.574219 266.109375 73.578125 C 266.117188 73.597656 268.65625 70.449219 273.085938 71.253906 "/><path style=" stroke:none;fill-rule:nonzero;fill:#25323b;fill-opacity:1;" d="M 264.191406 58.941406 C 265.765625 62.464844 270.660156 65.917969 270.648438 65.949219 C 270.625 65.941406 273.714844 63.675781 272.355469 60.003906 C 271 56.289062 265.34375 52.84375 265.332031 52.867188 C 265.304688 52.867188 262.621094 55.394531 264.191406 58.941406 "/><path style=" stroke:none;fill-rule:nonzero;fill:#25323b;fill-opacity:1;" d="M 261.472656 62.019531 C 265.730469 62.378906 270.308594 66.308594 270.269531 66.3125 C 270.277344 66.332031 267.976562 69.128906 263.925781 68.628906 C 259.910156 68.121094 255.351562 64.726562 255.316406 64.738281 C 255.320312 64.75 257.257812 61.660156 261.472656 62.019531 "/><path style=" stroke:none;fill-rule:nonzero;fill:#25323b;fill-opacity:1;" d="M 251.695312 51.535156 C 253.59375 54.617188 258.539062 57.359375 258.53125 57.375 C 258.511719 57.375 261.050781 55.0625 259.332031 51.84375 C 257.621094 48.597656 252.003906 45.910156 252 45.9375 C 251.976562 45.929688 249.8125 48.433594 251.695312 51.535156 "/><path style=" stroke:none;fill-rule:nonzero;fill:#25323b;fill-opacity:1;" d="M 249.582031 54.546875 C 253.550781 54.546875 258.265625 57.738281 258.234375 57.746094 C 258.242188 57.757812 256.496094 60.496094 252.691406 60.367188 C 248.921875 60.222656 244.257812 57.476562 244.226562 57.476562 C 244.238281 57.492188 245.640625 54.535156 249.582031 54.546875 "/><path style=" stroke:none;fill-rule:nonzero;fill:#25323b;fill-opacity:1;" d="M 239.378906 45.792969 C 241.464844 48.445312 246.324219 50.542969 246.316406 50.5625 C 246.296875 50.5625 248.332031 48.292969 246.390625 45.53125 C 244.453125 42.730469 239.027344 40.707031 239.015625 40.738281 C 238.996094 40.738281 237.292969 43.132812 239.378906 45.792969 "/><path style=" stroke:none;fill-rule:nonzero;fill:#25323b;fill-opacity:1;" d="M 237.78125 48.652344 C 241.421875 48.378906 246.117188 50.898438 246.089844 50.914062 C 246.097656 50.925781 244.839844 53.523438 241.332031 53.671875 C 237.851562 53.816406 233.234375 51.644531 233.199219 51.652344 C 233.214844 51.660156 234.167969 48.90625 237.78125 48.652344 "/><path style=" stroke:none;fill-rule:nonzero;fill:#25323b;fill-opacity:1;" d="M 228.074219 44.425781 C 231.722656 44.484375 235.742188 46.882812 235.722656 46.882812 C 235.71875 46.898438 233.925781 48.886719 230.445312 48.757812 C 226.992188 48.621094 222.890625 46.523438 222.867188 46.53125 C 222.867188 46.535156 224.449219 44.355469 228.074219 44.425781 "/><g clip-rule="nonzero" clip-path="url(#e8a9c631dd)"><path style=" stroke:none;fill-rule:nonzero;fill:#25323b;fill-opacity:1;" d="M 229.046875 42.269531 C 231.800781 44.386719 236.460938 45.46875 236.464844 45.488281 C 236.453125 45.492188 237.109375 42.964844 234.402344 40.742188 C 231.691406 38.496094 226.578125 37.582031 226.585938 37.597656 C 226.570312 37.601562 226.304688 40.140625 229.046875 42.269531 "/></g><path style=" stroke:none;fill-rule:nonzero;fill:#25323b;fill-opacity:1;" d="M 221.097656 38.933594 C 225.140625 40.101562 227.464844 42.964844 227.449219 42.964844 C 227.433594 42.964844 223.613281 43.691406 219.738281 42.566406 C 215.871094 41.433594 213.125 38.804688 213.109375 38.800781 C 213.097656 38.796875 217.054688 37.757812 221.097656 38.933594 "/><path style=" stroke:none;fill-rule:nonzero;fill:#25323b;fill-opacity:1;" d="M 187.421875 237.082031 L 193.960938 257.21875 L 215.144531 257.21875 L 198.011719 269.664062 L 204.554688 289.804688 L 187.421875 277.359375 L 170.296875 289.804688 L 176.847656 269.664062 L 159.707031 257.21875 L 180.882812 257.21875 L 187.421875 237.082031 "/><g clip-rule="nonzero" clip-path="url(#520df1eab5)"><path style=" stroke:none;fill-rule:nonzero;fill:#0cc0df;fill-opacity:1;" d="M 262.941406 95.300781 L 252.945312 117.675781 C 247.660156 114.203125 241.484375 112.492188 234.738281 112.6875 C 226.175781 112.933594 217.183594 116.238281 208.726562 122.230469 L 214.292969 130.082031 C 224.523438 122.835938 238.515625 118.570312 248.9375 126.632812 L 237.46875 152.296875 L 248.019531 157.007812 L 273.492188 100.011719 Z M 262.941406 95.300781 "/></g><path style=" stroke:none;fill-rule:nonzero;fill:#0cc0df;fill-opacity:1;" d="M 254.390625 153.179688 L 273.078125 111.351562 L 283.628906 116.0625 L 264.941406 157.890625 Z M 254.390625 153.179688 "/><path style=" stroke:none;fill-rule:nonzero;fill:#0cc0df;fill-opacity:1;" d="M 271.996094 149.726562 L 282.574219 127.730469 L 292.988281 132.742188 L 282.40625 154.734375 Z M 271.996094 149.726562 "/><path style=" stroke:none;fill-rule:nonzero;fill:#0cc0df;fill-opacity:1;" d="M 91.039062 116.066406 L 101.585938 111.351562 L 120.277344 153.179688 L 109.726562 157.894531 Z M 91.039062 116.066406 "/><g clip-rule="nonzero" clip-path="url(#ede0ae21e2)"><path style=" stroke:none;fill-rule:nonzero;fill:#0cc0df;fill-opacity:1;" d="M 81.683594 132.746094 L 92.097656 127.738281 L 102.675781 149.730469 L 92.261719 154.742188 Z M 81.683594 132.746094 "/></g><g clip-rule="nonzero" clip-path="url(#7269ebe0fb)"><path style=" stroke:none;fill-rule:nonzero;fill:#0cc0df;fill-opacity:1;" d="M 121.734375 117.675781 L 111.734375 95.300781 L 101.183594 100.011719 L 126.652344 157.015625 L 137.203125 152.300781 L 125.738281 126.636719 C 136.160156 118.570312 150.152344 122.835938 160.382812 130.089844 L 165.949219 122.234375 C 157.492188 116.242188 148.5 112.941406 139.9375 112.691406 C 133.191406 112.492188 127.019531 114.203125 121.734375 117.675781 Z M 121.734375 117.675781 "/></g><g clip-rule="nonzero" clip-path="url(#3d2864eedf)"><path style=" stroke:none;fill-rule:nonzero;fill:#25323b;fill-opacity:1;" d="M 238.050781 127.773438 C 237.949219 127.769531 237.847656 127.769531 237.746094 127.765625 C 218.558594 127.449219 195.597656 157.074219 189.117188 166.078125 C 187.976562 167.660156 187.347656 168.601562 187.335938 168.640625 C 187.273438 168.429688 159.234375 127.023438 136.621094 127.773438 C 136.53125 127.78125 136.441406 127.78125 136.347656 127.785156 C 169.992188 155.117188 187.335938 233.117188 187.335938 233.117188 C 187.335938 233.117188 204.683594 155.117188 238.328125 127.785156 C 238.238281 127.78125 238.148438 127.78125 238.050781 127.773438 Z M 238.050781 127.773438 "/></g><path style=" stroke:none;fill-rule:nonzero;fill:#25323b;fill-opacity:1;" d="M 187.335938 152.910156 C 193.78125 152.910156 199.007812 147.6875 199.007812 141.242188 C 199.007812 134.796875 193.78125 129.570312 187.335938 129.570312 C 180.894531 129.570312 175.667969 134.796875 175.667969 141.242188 C 175.667969 147.6875 180.894531 152.910156 187.335938 152.910156 Z M 187.335938 152.910156 "/><g style="fill:#061624;fill-opacity:1;"><g transform="translate(114.5813, 195.87985)"><path style="stroke:none" d="M 1.796875 -4 C 1.710938 -4.007812 1.664062 -4.0625 1.65625 -4.15625 L 1.65625 -5.578125 C 1.664062 -5.671875 1.710938 -5.722656 1.796875 -5.734375 L 4.640625 -5.734375 L 4.640625 -6.828125 L 2.125 -6.875 C 1.25 -6.894531 0.695312 -6.578125 0.46875 -5.921875 C 0.394531 -5.734375 0.359375 -5.523438 0.359375 -5.296875 L 0.359375 -4.4375 C 0.359375 -3.445312 0.878906 -2.925781 1.921875 -2.875 C 1.984375 -2.863281 2.050781 -2.859375 2.125 -2.859375 L 3.4375 -2.859375 C 3.519531 -2.847656 3.566406 -2.796875 3.578125 -2.703125 L 3.578125 -1.25 C 3.554688 -1.15625 3.507812 -1.101562 3.4375 -1.09375 L 0.5 -1.09375 L 0.5 0 L 3.109375 0.046875 C 4.078125 0.078125 4.644531 -0.285156 4.8125 -1.046875 C 4.84375 -1.203125 4.859375 -1.363281 4.859375 -1.53125 L 4.859375 -2.4375 C 4.859375 -3.257812 4.472656 -3.757812 3.703125 -3.9375 C 3.515625 -3.976562 3.3125 -4 3.09375 -4 Z M 1.796875 -4 "/></g></g><g style="fill:#061624;fill-opacity:1;"><g transform="translate(122.482399, 195.87985)"><path style="stroke:none" d="M 2.125 0 L 2.125 -6.828125 L 0.859375 -6.828125 L 0.859375 0 Z M 2.125 0 "/></g></g><g style="fill:#061624;fill-opacity:1;"><g transform="translate(128.159102, 195.87985)"><path style="stroke:none" d="M 4.765625 0 L 5.65625 0 L 5.65625 -6.828125 L 4.5625 -6.828125 L 4.5625 -2.234375 L 1.53125 -6.828125 L 0.65625 -6.828125 L 0.65625 0 L 1.75 0 L 1.75 -4.59375 Z M 4.765625 0 "/></g></g><g style="fill:#061624;fill-opacity:1;"><g transform="translate(137.177772, 195.87985)"><path style="stroke:none" d="M 4.5625 -1.140625 L 2.015625 -1.140625 C 1.941406 -1.148438 1.898438 -1.191406 1.890625 -1.265625 L 1.890625 -5.5625 C 1.910156 -5.644531 1.953125 -5.6875 2.015625 -5.6875 L 4.5625 -5.6875 L 4.5625 -6.828125 L 2.296875 -6.828125 C 1.242188 -6.828125 0.6875 -6.394531 0.625 -5.53125 C 0.613281 -5.46875 0.609375 -5.398438 0.609375 -5.328125 L 0.609375 -1.5 C 0.628906 -0.507812 1.191406 -0.0078125 2.296875 0 L 4.5625 0 Z M 4.5625 -1.140625 "/></g></g><g style="fill:#061624;fill-opacity:1;"><g transform="translate(144.616799, 195.87985)"><path style="stroke:none" d="M 4.75 0 L 4.75 -1.09375 L 1.984375 -1.09375 L 1.984375 -2.921875 L 4.5 -2.921875 L 4.5 -4.015625 L 1.984375 -4.015625 L 1.984375 -5.734375 L 4.703125 -5.734375 L 4.703125 -6.828125 L 0.734375 -6.828125 L 0.734375 0 Z M 4.75 0 "/></g></g><g style="fill:#061624;fill-opacity:1;"><g transform="translate(227.605653, 195.87985)"><path style="stroke:none" d="M 0.453125 -2.015625 L 0.453125 0 L 4.6875 0 L 4.6875 -1.09375 L 1.71875 -1.09375 L 1.71875 -2.015625 C 1.71875 -2.171875 1.769531 -2.28125 1.875 -2.34375 C 1.894531 -2.351562 1.910156 -2.359375 1.921875 -2.359375 L 3.75 -3.296875 C 4.207031 -3.546875 4.5 -3.789062 4.625 -4.03125 C 4.695312 -4.1875 4.734375 -4.367188 4.734375 -4.578125 L 4.734375 -5.375 C 4.734375 -6.34375 4.269531 -6.84375 3.34375 -6.875 C 3.28125 -6.875 3.21875 -6.875 3.15625 -6.875 L 0.609375 -6.828125 L 0.609375 -5.734375 L 3.328125 -5.734375 C 3.410156 -5.722656 3.457031 -5.675781 3.46875 -5.59375 L 3.46875 -4.546875 C 3.457031 -4.472656 3.40625 -4.410156 3.3125 -4.359375 L 1.40625 -3.359375 C 1.007812 -3.160156 0.765625 -2.988281 0.671875 -2.84375 C 0.523438 -2.65625 0.453125 -2.378906 0.453125 -2.015625 Z M 0.453125 -2.015625 "/></g></g><g style="fill:#061624;fill-opacity:1;"><g transform="translate(235.410039, 195.87985)"><path style="stroke:none" d="M 3.9375 -5.78125 C 4.019531 -5.78125 4.0625 -5.738281 4.0625 -5.65625 L 4.0625 -1.171875 C 4.0625 -1.085938 4.019531 -1.046875 3.9375 -1.046875 L 2.15625 -1.046875 C 2.0625 -1.046875 2.015625 -1.085938 2.015625 -1.171875 L 2.015625 -5.65625 C 2.015625 -5.738281 2.0625 -5.78125 2.15625 -5.78125 Z M 0.734375 -1.40625 C 0.734375 -0.445312 1.242188 0.0507812 2.265625 0.09375 C 2.304688 0.09375 2.351562 0.09375 2.40625 0.09375 L 3.671875 0.09375 C 4.765625 0.0390625 5.328125 -0.457031 5.359375 -1.40625 L 5.359375 -5.4375 C 5.335938 -6.425781 4.773438 -6.921875 3.671875 -6.921875 L 2.40625 -6.921875 C 1.300781 -6.910156 0.742188 -6.414062 0.734375 -5.4375 Z M 0.734375 -1.40625 "/></g></g><g style="fill:#061624;fill-opacity:1;"><g transform="translate(244.203046, 195.87985)"><path style="stroke:none" d="M 0.453125 -2.015625 L 0.453125 0 L 4.6875 0 L 4.6875 -1.09375 L 1.71875 -1.09375 L 1.71875 -2.015625 C 1.71875 -2.171875 1.769531 -2.28125 1.875 -2.34375 C 1.894531 -2.351562 1.910156 -2.359375 1.921875 -2.359375 L 3.75 -3.296875 C 4.207031 -3.546875 4.5 -3.789062 4.625 -4.03125 C 4.695312 -4.1875 4.734375 -4.367188 4.734375 -4.578125 L 4.734375 -5.375 C 4.734375 -6.34375 4.269531 -6.84375 3.34375 -6.875 C 3.28125 -6.875 3.21875 -6.875 3.15625 -6.875 L 0.609375 -6.828125 L 0.609375 -5.734375 L 3.328125 -5.734375 C 3.410156 -5.722656 3.457031 -5.675781 3.46875 -5.59375 L 3.46875 -4.546875 C 3.457031 -4.472656 3.40625 -4.410156 3.3125 -4.359375 L 1.40625 -3.359375 C 1.007812 -3.160156 0.765625 -2.988281 0.671875 -2.84375 C 0.523438 -2.65625 0.453125 -2.378906 0.453125 -2.015625 Z M 0.453125 -2.015625 "/></g></g><g style="fill:#061624;fill-opacity:1;"><g transform="translate(252.007432, 195.87985)"><path style="stroke:none" d="M 1.78125 -4.28125 L 1.78125 -5.734375 L 4.359375 -5.734375 L 4.359375 -6.828125 L 0.515625 -6.828125 L 0.515625 -3.1875 L 3.203125 -3.1875 C 3.285156 -3.175781 3.332031 -3.128906 3.34375 -3.046875 L 3.34375 -1.25 C 3.332031 -1.15625 3.285156 -1.101562 3.203125 -1.09375 L 0.46875 -1.09375 L 0.46875 0 L 2.890625 0.046875 C 3.847656 0.078125 4.410156 -0.285156 4.578125 -1.046875 C 4.617188 -1.203125 4.640625 -1.363281 4.640625 -1.53125 L 4.640625 -2.703125 C 4.640625 -3.535156 4.25 -4.039062 3.46875 -4.21875 C 3.28125 -4.257812 3.082031 -4.28125 2.875 -4.28125 Z M 1.78125 -4.28125 "/></g></g></g></svg>